<svg width="98" height="53" viewBox="0 0 98 53" fill="none" xmlns="http://www.w3.org/2000/svg">
<path fill-rule="evenodd" clip-rule="evenodd" d="M4.44267 9.41523C2.05423 14.5937 0.0633721 18.9276 0.0186337 19.0465C-0.0555183 19.2431 0.046935 19.2624 1.16366 19.2624H2.39001L3.43234 16.9179L4.47455 14.5733L8.25779 14.5728L12.041 14.5723L12.5077 16.9174L12.9743 19.2624H14.1932C14.8635 19.2624 15.4101 19.2207 15.4079 19.1699C15.4057 19.119 14.4699 14.8006 13.3283 9.57358L11.2527 0.0698586L10.019 0.0349293L8.78525 0L4.44267 9.41523ZM38.8178 0.746228C38.1307 1.02344 37.7608 2.01713 38.0699 2.75571C38.3116 3.33346 38.7504 3.60808 39.4325 3.60808C40.1137 3.60808 40.4435 3.43911 40.7534 2.93159C41.546 1.63341 40.2488 0.168845 38.8178 0.746228ZM31.6636 1.57589C31.1878 1.67722 30.7733 1.7846 30.7426 1.81422C30.7119 1.84397 30.5725 2.79669 30.4329 3.93133L30.1791 5.99426L29.4383 6.05597L28.6975 6.11768L28.614 6.6731C28.568 6.97857 28.5264 7.40896 28.5213 7.62964L28.5122 8.03077H29.2094H29.9068L29.8308 8.74047C29.7889 9.13074 29.5607 11.0418 29.3235 12.9872C28.9834 15.7761 28.9157 16.6683 29.0032 17.2052C29.1819 18.302 29.4949 18.7638 30.3552 19.1994C30.6926 19.3703 31.0139 19.4033 31.9618 19.3646C32.9791 19.3233 33.2665 19.2602 33.9943 18.9193C34.7455 18.5676 34.8339 18.4901 34.7708 18.2393C34.7317 18.0835 34.6624 17.6392 34.6168 17.2516C34.5712 16.8642 34.5187 16.5471 34.5002 16.5471C34.4816 16.5471 34.114 16.7137 33.683 16.9172C32.7588 17.3539 32.0168 17.4013 31.5846 17.0514C31.3193 16.8367 31.2934 16.7222 31.2985 15.7863C31.3016 15.2204 31.4917 13.244 31.721 11.3941L32.1378 8.03077H33.9636C34.9676 8.03077 35.8192 7.98227 35.8559 7.9229C35.8928 7.86353 35.9595 7.42068 36.0042 6.93871L36.0858 6.06264L34.2395 6.02845L32.3933 5.99426L32.6707 3.77261C32.8232 2.5507 32.951 1.50924 32.9547 1.45839C32.9636 1.33287 32.6844 1.35829 31.6636 1.57589ZM10.656 7.76973C11.169 10.3075 11.5673 12.4052 11.5414 12.4312C11.5153 12.4572 10.1332 12.4636 8.47011 12.4454L5.44607 12.4124L7.55445 7.6879C8.71407 5.08943 9.67656 3.00663 9.69312 3.05946C9.7098 3.11229 10.1431 5.23186 10.656 7.76973ZM21.7302 6.12731C19.4587 6.7374 17.8098 8.39426 16.9489 10.9313C16.5048 12.2401 16.3876 14.4676 16.6989 15.68C17.0821 17.1721 18.0001 18.2958 19.3562 18.9325C20.0303 19.249 20.3358 19.3131 21.3968 19.3602C22.1175 19.3922 22.9448 19.3534 23.3554 19.2682C24.3367 19.0648 25.6716 18.3709 26.441 17.6645C27.1815 16.9844 27.1821 16.9869 26.1082 16.248L25.4253 15.7784L25.0156 16.1377C24.3495 16.7219 23.7826 17.0228 22.9447 17.2372C21.5678 17.5894 20.4576 17.2851 19.5796 16.3143C18.9267 15.5925 18.6978 14.7009 18.7851 13.2189C18.9284 10.7892 19.9624 9.0789 21.7866 8.25429C22.2526 8.04361 22.6255 7.97943 23.3833 7.97943C24.5507 7.97943 25.2654 8.24812 25.938 8.93967L26.3744 9.38845L27.1961 8.76713C27.648 8.42549 28.0178 8.10409 28.0178 8.05287C28.0178 7.86168 26.8247 6.81257 26.3222 6.56189C25.0792 5.94156 23.1138 5.75556 21.7302 6.12731ZM58.5437 6.10189C55.611 6.94969 53.7395 9.38857 53.351 12.8693C52.9925 16.0801 54.2906 18.4555 56.8051 19.1899C57.7701 19.4717 59.5511 19.4483 60.5479 19.1409C61.462 18.8588 62.6 18.153 63.2728 17.4506L63.7381 16.9649L62.932 16.3857C62.4886 16.0672 62.0913 15.8065 62.0491 15.8065C62.0069 15.8065 61.7498 16.0074 61.4778 16.2527C59.6277 17.9221 56.8491 17.689 55.899 15.7848C55.3483 14.6812 55.3733 14.6459 56.8898 14.3991C60.5537 13.803 63.0686 12.5289 63.9101 10.8425C64.2799 10.1013 64.3487 8.80341 64.0553 8.10211C63.7681 7.4155 63.0509 6.73308 62.2219 6.3575C61.5744 6.06412 61.2561 6.00142 60.2739 5.97402C59.5757 5.95439 58.8744 6.00623 58.5437 6.10189ZM37.7812 6.10189C37.7812 6.21717 36.2898 18.3896 36.2254 18.7996L36.1528 19.2624H37.2759C37.8936 19.2624 38.3991 19.2116 38.3991 19.1495C38.3991 18.9877 39.8656 7.07448 39.9539 6.51882L40.0275 6.05597H38.9043C38.2866 6.05597 37.7812 6.07658 37.7812 6.10189ZM42.1123 10.327C41.704 13.6027 41.5938 14.8614 41.6392 15.7284C41.7291 17.4453 42.2559 18.4388 43.4044 19.0578C43.8328 19.2886 44.6065 19.3324 45.3882 19.3242C46.3461 19.314 46.8897 19.3181 47.7981 18.8671C50.0402 17.7537 51.4569 15.7492 52.2522 12.5644C52.5404 11.4103 52.705 7.95536 52.527 6.79652L52.4227 6.11768H51.3122C50.4105 6.11768 50.2089 6.15113 50.2403 6.29529C50.3809 6.94081 50.4022 9.97472 50.2726 10.8752C50.0935 12.1186 49.5226 13.8951 49.0261 14.7548C47.7382 16.9848 45.5608 18.0372 44.4447 16.9693C43.6853 16.2427 43.672 15.4596 44.3312 10.2524C44.602 8.11408 44.824 6.29517 44.8245 6.21025C44.8253 6.09843 44.5257 6.05597 43.7351 6.05597H42.6444L42.1123 10.327ZM60.8301 8.02719C61.8759 8.26824 62.3328 9.404 61.7608 10.3408C61.2415 11.1916 59.5268 11.9847 57.2914 12.4082C56.2024 12.6144 55.5768 12.6498 55.5791 12.5049C55.5838 12.2045 55.9585 11.085 56.2386 10.5347C57.2009 8.64296 59.0709 7.62174 60.8301 8.02719ZM79.8006 22.4066C73.359 23.4721 68.8758 27.7205 67.4889 34.0735C67.1634 35.5645 67.1592 39.6055 67.4816 41.1087C68.6367 46.4947 71.9249 50.3357 76.8731 52.0786C78.8072 52.7599 80.2326 52.9924 82.5195 52.9998C84.8171 53.0071 86.2144 52.8067 87.9776 52.2168C92.5026 50.7026 95.6508 47.5652 97.1576 43.0678C97.772 41.2342 98.0006 39.7645 98 37.6528C97.9993 34.6391 97.4632 32.3728 96.1576 29.8632C94.1697 26.0422 90.8032 23.5711 86.1653 22.5288C84.9354 22.2524 81.1698 22.1801 79.8006 22.4066ZM0.0872243 37.5911V52.5872H3.60944H7.13166V48.277V43.9667L8.206 42.6611C8.79687 41.943 9.31124 41.358 9.34918 41.361C9.387 41.3639 10.9996 43.891 12.9326 46.9768L16.4471 52.5872H20.8156C24.9385 52.5872 25.1774 52.5751 25.0661 52.3712C25.0012 52.2525 22.4948 48.4402 19.4965 43.8997C14.7079 36.6482 14.0655 35.62 14.2145 35.4451C14.4778 35.1364 24.578 22.9234 24.7142 22.7492C24.8102 22.6264 23.9177 22.5949 20.3396 22.595L15.8445 22.5953L11.519 28.3294L7.19346 34.0636L7.16133 28.3293L7.12919 22.5949H3.60821H0.0872243V37.5911ZM25.5049 22.6772C25.4596 22.7224 25.4225 29.4707 25.4225 37.6734V52.5872H35.6802H45.9379V49.4399V46.2925H39.2024H32.4669V43.5772V40.8618H37.4722H42.4775V37.7762V34.6906H37.4722H32.4669V31.8518V29.013H38.7699H45.0728V25.804V22.5949H35.3301C29.9715 22.5949 25.5502 22.632 25.5049 22.6772ZM45.9379 25.804V29.013H49.8927H53.8474V40.8001V52.5872H57.3696H60.8919V40.8001V29.013H64.8466H68.8014V25.804V22.5949H57.3696H45.9379V25.804ZM85.13 29.2436C86.7993 29.7807 88.3806 31.0862 89.3509 32.7282C90.9719 35.4719 90.9969 39.6576 89.4092 42.4664C88.7882 43.565 87.1981 45.0663 86.1035 45.5876C82.5408 47.2845 78.4501 46.2358 76.2108 43.0514C75.5109 42.056 74.9511 40.685 74.7299 39.4244C74.5088 38.1649 74.6325 35.8579 74.9804 34.7523C75.8949 31.8465 77.9185 29.8264 80.6657 29.077C81.6582 28.8062 84.0477 28.8954 85.13 29.2436Z" fill="#0F0F0F"/>
</svg>
