<svg width="96" height="96" viewBox="0 0 96 96" fill="none" xmlns="http://www.w3.org/2000/svg">
<g clip-path="url(#clip0_107_2858)">
<path d="M47.9539 89.3858C70.912 89.3858 89.5233 70.7746 89.5233 47.8164C89.5233 24.8583 70.912 6.24707 47.9539 6.24707C24.9958 6.24707 6.38452 24.8583 6.38452 47.8164C6.38452 70.7746 24.9958 89.3858 47.9539 89.3858Z" fill="#FDFDFD"/>
<mask id="mask0_107_2858" style="mask-type:alpha" maskUnits="userSpaceOnUse" x="10" y="11" width="76" height="75">
<path d="M47.819 85.5445C68.3793 85.5445 85.0467 68.8771 85.0467 48.3168C85.0467 27.7565 68.3793 11.0891 47.819 11.0891C27.2587 11.0891 10.5913 27.7565 10.5913 48.3168C10.5913 68.8771 27.2587 85.5445 47.819 85.5445Z" fill="#FDFDFD"/>
</mask>
<g mask="url(#mask0_107_2858)">
<path d="M13.0913 62.4609V87.4452H82.8299V62.4609H13.0913Z" fill="#012169"/>
<path d="M13.0913 62.4609L82.8299 87.4452L13.0913 62.4609ZM82.8299 62.4609L13.0913 87.4452L82.8299 62.4609Z" fill="black"/>
<path d="M82.8299 62.4609L13.0913 87.4452M13.0913 62.4609L82.8299 87.4452L13.0913 62.4609Z" stroke="white" stroke-width="9.752"/>
<path d="M13.0913 62.4609L82.8299 87.4452L13.0913 62.4609ZM82.8299 62.4609L13.0913 87.4452L82.8299 62.4609Z" fill="black"/>
<path d="M82.8299 62.4609L13.0913 87.4452M13.0913 62.4609L82.8299 87.4452L13.0913 62.4609Z" stroke="#C8102E" stroke-width="5.8512"/>
<path d="M47.9606 62.4609V87.4452V62.4609ZM13.0913 74.953H82.8299H13.0913Z" fill="black"/>
<path d="M13.0913 74.953H82.8299M47.9606 62.4609V87.4452V62.4609Z" stroke="white" stroke-width="9.752"/>
<path d="M47.9606 62.4609V87.4452V62.4609ZM13.0913 74.953H82.8299H13.0913Z" fill="black"/>
<path d="M13.0913 74.953H82.8299M47.9606 62.4609V87.4452V62.4609Z" stroke="#C8102E" stroke-width="5.8512"/>
<g clip-path="url(#clip1_107_2858)">
<path d="M89 63H6V114H89V63Z" fill="#169B62"/>
<path d="M89.0001 63H33.6667V114H89.0001V63Z" fill="white"/>
<path d="M88.9999 63H61.3333V114H88.9999V63Z" fill="#FF883E"/>
</g>
<path d="M19.1333 66.2461H81.9998V69.4919H19.1333V66.2461Z" fill="white"/>
<path d="M19.1333 72.7378H81.9998V75.9836H19.1333V72.7378Z" fill="white"/>
<path d="M19.1333 79.2292H81.9998V82.475H19.1333V79.2292Z" fill="white"/>
<path d="M19.1333 63H44.7289V85.5697H19.1333V63Z" fill="#3C3B6E"/>
<path d="M21.033 64.1008L21.2681 64.9092L22.0344 64.9074L21.4135 65.405L21.6518 66.2122L21.0329 65.7115L20.414 66.2121L20.6524 65.405L20.0315 64.9072L20.7978 64.9091L21.033 64.1008Z" fill="white"/>
<path d="M25.3926 64.1008L25.6278 64.9092L26.394 64.9074L25.7731 65.405L26.0114 66.2122L25.3925 65.7115L24.7736 66.2121L25.012 65.405L24.3911 64.9072L25.1574 64.9091L25.3926 64.1008Z" fill="white"/>
<path d="M29.7515 64.1008L29.9866 64.9092L30.7529 64.9074L30.132 65.405L30.3703 66.2122L29.7514 65.7115L29.1325 66.2121L29.3709 65.405L28.75 64.9072L29.5163 64.9091L29.7515 64.1008Z" fill="white"/>
<path d="M34.1109 64.1008L34.346 64.9092L35.1123 64.9074L34.4914 65.405L34.7297 66.2122L34.1108 65.7115L33.4918 66.2121L33.7303 65.405L33.1094 64.9072L33.8756 64.9091L34.1109 64.1008Z" fill="white"/>
<path d="M38.4698 64.1008L38.7049 64.9092L39.4712 64.9074L38.8502 65.405L39.0886 66.2122L38.4697 65.7115L37.8507 66.2121L38.0891 65.405L37.4683 64.9072L38.2345 64.9091L38.4698 64.1008Z" fill="white"/>
<path d="M42.8294 64.1008L43.0645 64.9092L43.8308 64.9074L43.2099 65.405L43.4482 66.2122L42.8293 65.7115L42.2103 66.2121L42.4488 65.405L41.8279 64.9072L42.5941 64.9091L42.8294 64.1008Z" fill="white"/>
<path d="M21.033 68.6953L21.2681 69.5036L22.0344 69.5018L21.4135 69.9995L21.6518 70.8067L21.0329 70.3059L20.414 70.8066L20.6524 69.9994L20.0315 69.5017L20.7978 69.5036L21.033 68.6953Z" fill="white"/>
<path d="M25.3926 68.6953L25.6278 69.5036L26.394 69.5018L25.7731 69.9995L26.0114 70.8067L25.3925 70.3059L24.7736 70.8066L25.012 69.9995L24.3911 69.5017L25.1574 69.5036L25.3926 68.6953Z" fill="white"/>
<path d="M29.7515 68.6953L29.9866 69.5036L30.7529 69.5018L30.132 69.9995L30.3703 70.8067L29.7514 70.3059L29.1325 70.8066L29.3709 69.9995L28.75 69.5017L29.5163 69.5036L29.7515 68.6953Z" fill="white"/>
<path d="M34.1109 68.6953L34.346 69.5036L35.1123 69.5018L34.4914 69.9995L34.7297 70.8067L34.1108 70.3059L33.4918 70.8066L33.7303 69.9995L33.1094 69.5017L33.8756 69.5036L34.1109 68.6953Z" fill="white"/>
<path d="M38.4698 68.6953L38.7049 69.5036L39.4712 69.5018L38.8502 69.9995L39.0886 70.8067L38.4697 70.3059L37.8507 70.8066L38.0891 69.9995L37.4683 69.5017L38.2345 69.5036L38.4698 68.6953Z" fill="white"/>
<path d="M42.8294 68.6953L43.0645 69.5036L43.8308 69.5018L43.2099 69.9995L43.4482 70.8067L42.8293 70.3059L42.2103 70.8066L42.4488 69.9995L41.8279 69.5017L42.5941 69.5036L42.8294 68.6953Z" fill="white"/>
<path d="M21.033 73.2886L21.2681 74.0969L22.0344 74.0951L21.4135 74.5928L21.6518 75.3999L21.0329 74.8992L20.414 75.3998L20.6524 74.5927L20.0315 74.095L20.7978 74.0968L21.033 73.2886Z" fill="white"/>
<path d="M25.3926 73.2886L25.6278 74.0969L26.394 74.0951L25.7731 74.5928L26.0114 75.3999L25.3925 74.8992L24.7736 75.3998L25.012 74.5927L24.3911 74.095L25.1574 74.0968L25.3926 73.2886Z" fill="white"/>
<path d="M29.7515 73.2886L29.9866 74.0969L30.7529 74.0951L30.132 74.5928L30.3703 75.3999L29.7514 74.8992L29.1325 75.3998L29.3709 74.5927L28.75 74.095L29.5163 74.0968L29.7515 73.2886Z" fill="white"/>
<path d="M34.1109 73.2886L34.346 74.0969L35.1123 74.0951L34.4914 74.5928L34.7297 75.3999L34.1108 74.8992L33.4918 75.3998L33.7303 74.5927L33.1094 74.095L33.8756 74.0968L34.1109 73.2886Z" fill="white"/>
<path d="M38.4698 73.2886L38.7049 74.0969L39.4712 74.0951L38.8502 74.5928L39.0886 75.3999L38.4697 74.8992L37.8507 75.3998L38.0891 74.5927L37.4683 74.095L38.2345 74.0968L38.4698 73.2886Z" fill="white"/>
<path d="M42.8294 73.2886L43.0645 74.0969L43.8308 74.0951L43.2099 74.5928L43.4482 75.3999L42.8293 74.8992L42.2103 75.3998L42.4488 74.5927L41.8279 74.095L42.5941 74.0968L42.8294 73.2886Z" fill="white"/>
<path d="M21.033 77.8826L21.2681 78.6909L22.0344 78.6891L21.4135 79.1868L21.6518 79.9939L21.0329 79.4932L20.414 79.9939L20.6524 79.1867L20.0315 78.689L20.7978 78.6908L21.033 77.8826Z" fill="white"/>
<path d="M25.3926 77.8826L25.6278 78.6909L26.394 78.6891L25.7731 79.1868L26.0114 79.9939L25.3925 79.4932L24.7736 79.9939L25.012 79.1867L24.3911 78.689L25.1574 78.6908L25.3926 77.8826Z" fill="white"/>
<path d="M29.7515 77.8826L29.9866 78.6909L30.7529 78.6891L30.132 79.1868L30.3703 79.9939L29.7514 79.4932L29.1325 79.9939L29.3709 79.1867L28.75 78.689L29.5163 78.6908L29.7515 77.8826Z" fill="white"/>
<path d="M34.1109 77.8826L34.346 78.6909L35.1123 78.6891L34.4914 79.1868L34.7297 79.9939L34.1108 79.4932L33.4918 79.9939L33.7303 79.1867L33.1094 78.689L33.8756 78.6908L34.1109 77.8826Z" fill="white"/>
<path d="M38.4698 77.8826L38.7049 78.6909L39.4712 78.6891L38.8502 79.1868L39.0886 79.9939L38.4697 79.4932L37.8507 79.9939L38.0891 79.1867L37.4683 78.689L38.2345 78.6908L38.4698 77.8826Z" fill="white"/>
<path d="M42.8294 77.8826L43.0645 78.6909L43.8308 78.6891L43.2099 79.1868L43.4482 79.9939L42.8293 79.4932L42.2103 79.9939L42.4488 79.1867L41.8279 78.689L42.5941 78.6908L42.8294 77.8826Z" fill="white"/>
<path d="M21.033 82.4771L21.2681 83.2854L22.0344 83.2836L21.4135 83.7812L21.6518 84.5884L21.0329 84.0877L20.414 84.5883L20.6524 83.7812L20.0315 83.2834L20.7978 83.2853L21.033 82.4771Z" fill="white"/>
<path d="M25.3926 82.4771L25.6278 83.2854L26.394 83.2836L25.7731 83.7812L26.0114 84.5884L25.3925 84.0877L24.7736 84.5883L25.012 83.7812L24.3911 83.2834L25.1574 83.2853L25.3926 82.4771Z" fill="white"/>
<path d="M29.7515 82.4771L29.9866 83.2854L30.7529 83.2836L30.132 83.7812L30.3703 84.5884L29.7514 84.0877L29.1325 84.5883L29.3709 83.7812L28.75 83.2834L29.5163 83.2853L29.7515 82.4771Z" fill="white"/>
<path d="M34.1109 82.4771L34.346 83.2854L35.1123 83.2836L34.4914 83.7812L34.7297 84.5884L34.1108 84.0877L33.4918 84.5883L33.7303 83.7812L33.1094 83.2834L33.8756 83.2853L34.1109 82.4771Z" fill="white"/>
<path d="M38.4698 82.4771L38.7049 83.2854L39.4712 83.2836L38.8502 83.7812L39.0886 84.5884L38.4697 84.0877L37.8507 84.5883L38.0891 83.7812L37.4683 83.2834L38.2345 83.2853L38.4698 82.4771Z" fill="white"/>
<path d="M42.8294 82.4771L43.0645 83.2854L43.8308 83.2836L43.2099 83.7812L43.4482 84.5884L42.8293 84.0877L42.2103 84.5883L42.4488 83.7812L41.8279 83.2834L42.5941 83.2853L42.8294 82.4771Z" fill="white"/>
<path d="M23.0948 66.3975L23.3299 67.2058L24.0962 67.204L23.4752 67.7017L23.7136 68.5088L23.0947 68.0081L22.4757 68.5087L22.7141 67.7016L22.0933 67.2039L22.8595 67.2057L23.0948 66.3975Z" fill="white"/>
<path d="M27.4544 66.3975L27.6895 67.2058L28.4558 67.204L27.8349 67.7017L28.0732 68.5088L27.4543 68.0081L26.8353 68.5087L27.0738 67.7016L26.4529 67.2039L27.2191 67.2057L27.4544 66.3975Z" fill="white"/>
<path d="M31.813 66.3975L32.0482 67.2058L32.8144 67.204L32.1935 67.7017L32.4318 68.5088L31.8129 68.0081L31.194 68.5087L31.4324 67.7016L30.8115 67.2039L31.5778 67.2057L31.813 66.3975Z" fill="white"/>
<path d="M36.1724 66.3975L36.4075 67.2058L37.1738 67.204L36.5529 67.7017L36.7912 68.5088L36.1723 68.0081L35.5534 68.5087L35.7918 67.7016L35.1709 67.2039L35.9372 67.2057L36.1724 66.3975Z" fill="white"/>
<path d="M40.5315 66.3975L40.7667 67.2058L41.5329 67.204L40.912 67.7017L41.1503 68.5088L40.5314 68.0081L39.9125 68.5087L40.1509 67.7016L39.53 67.2039L40.2963 67.2057L40.5315 66.3975Z" fill="white"/>
<path d="M23.0948 70.9919L23.3299 71.8003L24.0962 71.7985L23.4752 72.2961L23.7136 73.1033L23.0947 72.6026L22.4757 73.1032L22.7141 72.2961L22.0933 71.7983L22.8595 71.8002L23.0948 70.9919Z" fill="white"/>
<path d="M27.4544 70.9919L27.6895 71.8003L28.4558 71.7985L27.8349 72.2961L28.0732 73.1033L27.4543 72.6026L26.8353 73.1032L27.0738 72.2961L26.4529 71.7983L27.2191 71.8002L27.4544 70.9919Z" fill="white"/>
<path d="M31.813 70.9919L32.0482 71.8003L32.8144 71.7985L32.1935 72.2961L32.4318 73.1033L31.8129 72.6026L31.194 73.1032L31.4324 72.2961L30.8115 71.7983L31.5778 71.8002L31.813 70.9919Z" fill="white"/>
<path d="M36.1724 70.9919L36.4075 71.8003L37.1738 71.7985L36.5529 72.2961L36.7912 73.1033L36.1723 72.6026L35.5534 73.1032L35.7918 72.2961L35.1709 71.7983L35.9372 71.8002L36.1724 70.9919Z" fill="white"/>
<path d="M40.5315 70.9919L40.7667 71.8003L41.5329 71.7985L40.912 72.2961L41.1503 73.1033L40.5314 72.6026L39.9125 73.1032L40.1509 72.2961L39.53 71.7983L40.2963 71.8002L40.5315 70.9919Z" fill="white"/>
<path d="M23.0948 75.5859L23.3299 76.3943L24.0962 76.3925L23.4752 76.8901L23.7136 77.6973L23.0947 77.1965L22.4757 77.6972L22.7141 76.8901L22.0933 76.3923L22.8595 76.3942L23.0948 75.5859Z" fill="white"/>
<path d="M27.4544 75.5859L27.6895 76.3943L28.4558 76.3925L27.8349 76.8901L28.0732 77.6973L27.4543 77.1965L26.8353 77.6972L27.0738 76.8901L26.4529 76.3923L27.2191 76.3942L27.4544 75.5859Z" fill="white"/>
<path d="M31.813 75.5859L32.0482 76.3943L32.8144 76.3925L32.1935 76.8901L32.4318 77.6973L31.8129 77.1965L31.194 77.6972L31.4324 76.8901L30.8115 76.3923L31.5778 76.3942L31.813 75.5859Z" fill="white"/>
<path d="M36.1724 75.5859L36.4075 76.3943L37.1738 76.3925L36.5529 76.8901L36.7912 77.6973L36.1723 77.1965L35.5534 77.6972L35.7918 76.8901L35.1709 76.3923L35.9372 76.3942L36.1724 75.5859Z" fill="white"/>
<path d="M40.5315 75.5859L40.7667 76.3943L41.5329 76.3925L40.912 76.8901L41.1503 77.6973L40.5314 77.1965L39.9125 77.6972L40.1509 76.8901L39.53 76.3923L40.2963 76.3942L40.5315 75.5859Z" fill="white"/>
<path d="M23.0948 80.1792L23.3299 80.9875L24.0962 80.9857L23.4752 81.4834L23.7136 82.2906L23.0947 81.7898L22.4757 82.2905L22.7141 81.4833L22.0933 80.9856L22.8595 80.9875L23.0948 80.1792Z" fill="white"/>
<path d="M27.4544 80.1792L27.6895 80.9875L28.4558 80.9857L27.8349 81.4834L28.0732 82.2906L27.4543 81.7898L26.8353 82.2905L27.0738 81.4833L26.4529 80.9856L27.2191 80.9875L27.4544 80.1792Z" fill="white"/>
<path d="M31.813 80.1792L32.0482 80.9875L32.8144 80.9857L32.1935 81.4834L32.4318 82.2906L31.8129 81.7898L31.194 82.2905L31.4324 81.4833L30.8115 80.9856L31.5778 80.9875L31.813 80.1792Z" fill="white"/>
<path d="M36.1724 80.1792L36.4075 80.9875L37.1738 80.9857L36.5529 81.4834L36.7912 82.2906L36.1723 81.7898L35.5534 82.2905L35.7918 81.4833L35.1709 80.9856L35.9372 80.9875L36.1724 80.1792Z" fill="white"/>
<path d="M40.5315 80.1792L40.7667 80.9875L41.5329 80.9857L40.912 81.4834L41.1503 82.2906L40.5314 81.7898L39.9125 82.2905L40.1509 81.4833L39.53 80.9856L40.2963 80.9875L40.5315 80.1792Z" fill="white"/>
<g clip-path="url(#clip2_107_2858)">
<path d="M82 63H13V107.712H82V63Z" fill="#00008B"/>
<mask id="mask1_107_2858" style="mask-type:alpha" maskUnits="userSpaceOnUse" x="13" y="63" width="38" height="18">
<rect x="13" y="63" width="37.4096" height="17.8588" fill="#C4C4C4"/>
</mask>
<g mask="url(#mask1_107_2858)">
<path d="M50.4096 63L13 80.8588L50.4096 63Z" fill="black"/>
<path d="M13 63L50.4096 80.8588M50.4096 63L13 80.8588" stroke="white" stroke-width="5.73132"/>
<path d="M50.4096 63L13 80.8588L50.4096 63Z" fill="black"/>
<path d="M13 63L50.4096 80.8588M50.4096 63L13 80.8588" stroke="#FF0000" stroke-width="3.43879"/>
<path d="M13 71.9294H50.4096H13Z" fill="black"/>
<path d="M31.7048 63V80.8588M13 71.9294H50.4096" stroke="white" stroke-width="5.73132"/>
<path d="M13 71.9294H50.4096H13Z" fill="black"/>
<path d="M31.7048 63V80.8588M13 71.9294H50.4096" stroke="#FF0000" stroke-width="3.43879"/>
</g>
<path d="M56.6873 78.155L57.2713 79.928L59.055 79.2684L57.9995 80.8197L59.6398 81.7702L57.7396 81.9316L58.0013 83.7765L56.6873 82.4265L55.3734 83.7765L55.635 81.9316L53.7349 81.7702L55.3751 80.8197L54.3196 79.2684L56.1033 79.928L56.6873 78.155Z" fill="white"/>
<path d="M67.2865 66.9426L67.8704 68.7156L69.6542 68.056L68.5987 69.6073L70.2389 70.5578L68.3388 70.7192L68.6004 72.5641L67.2865 71.2141L65.9725 72.5641L66.2341 70.7192L64.334 70.5578L65.9742 69.6073L64.9188 68.056L66.7025 68.7156L67.2865 66.9426Z" fill="white"/>
<path d="M76.7086 75.395L77.2926 77.168L79.0763 76.5084L78.0208 78.0597L79.661 79.0102L77.7609 79.1716L78.0225 81.0165L76.7086 79.6664L75.3946 81.0165L75.6563 79.1716L73.7561 79.0102L75.3964 78.0597L74.3409 76.5084L76.1246 77.168L76.7086 75.395Z" fill="white"/>
<path d="M71.5265 83.6995L71.988 84.8042L73.2066 84.8914L72.2733 85.6614L72.5649 86.82L71.5265 86.1911L70.4882 86.82L70.7798 85.6614L69.8464 84.8914L71.065 84.8042L71.5265 83.6995Z" fill="white"/>
</g>
<g clip-path="url(#clip3_107_2858)">
<rect width="69" height="39" transform="translate(13 63)" fill="#012169"/>
<path d="M11.135 61.2783V63.4679L48.7702 80.8842H53.4999V78.6947L15.8783 61.2783H11.135ZM53.5133 61.2783V63.4679L15.8783 80.8967H11.135V78.7072L48.7702 61.2783H53.5133Z" fill="white"/>
<path d="M28.7972 61.2783V80.8967H35.8648V61.2783H28.7972ZM11.135 67.822V74.3656H53.4999V67.822H11.135Z" fill="white"/>
<path d="M11.135 69.1232V73.0519H53.4999V69.1232H11.135ZM30.2026 61.2783V80.8967H34.4458V61.2783H30.2026Z" fill="#FF0000"/>
<path d="M11.4458 63.618L48.7702 80.8967H53.4999V78.7072L15.8783 61.2783H15.2296C13.5404 61.2783 12.0674 62.2417 11.4458 63.618ZM53.5133 61.2783V63.4679L15.8783 80.8967H11.135V78.7072L48.7702 61.2783H53.5133Z" fill="white"/>
<path d="M28.7972 61.2783V80.8967H35.8648V61.2783H28.7972ZM11.135 67.822V74.3656H53.4999V67.822H11.135Z" fill="white"/>
<path d="M11.135 69.1232V73.0519H53.4999V69.1232H11.135ZM30.2026 61.2783V80.8967H34.4458V61.2783H30.2026Z" fill="#C8102E"/>
<path d="M11.135 80.8967L25.2566 74.3531H28.4188L14.2972 80.8967H11.135ZM11.7837 63.0425C12.0539 62.6546 12.3918 62.3168 12.7837 62.0415L25.2701 67.822H22.108L11.7837 63.0425ZM36.2296 67.822L50.3512 61.2783H53.5133L39.3782 67.822H36.2296ZM53.5133 80.8967L39.3782 74.3531H42.5404L53.4999 79.4329V80.8967H53.5133Z" fill="#C8102E"/>
<path d="M69.5813 70.4121V71.926L72.8381 70.4121H69.5813Z" fill="white"/>
<path d="M70.2019 72.1888L69.2424 70.9751L72.837 70.4121L70.2019 72.1888Z" fill="white"/>
<path d="M69.5794 70.4121V71.926L66.3228 70.4121H69.5794Z" fill="white"/>
<path d="M68.9578 72.1888L69.9173 70.9751L66.3228 70.4121L68.9578 72.1888Z" fill="white"/>
<path d="M70.5943 71.1011L69.0403 71.564L71.5942 73.9663L70.5943 71.1011Z" fill="white"/>
<path d="M68.9587 72.1882L69.9182 70.9746L71.594 73.9649L68.9587 72.1882Z" fill="white"/>
<path d="M68.5669 71.1004L70.1209 71.5633L69.5805 68.2227L68.5669 71.1004Z" fill="white"/>
<path d="M70.5943 71.1004L69.0403 71.5633L69.5807 68.2227L70.5943 71.1004Z" fill="white"/>
<path d="M68.5673 71.1011L70.1213 71.564L67.5671 73.9663L68.5673 71.1011Z" fill="white"/>
<path d="M70.2024 72.1882L69.2429 70.9746L67.5671 73.9649L70.2024 72.1882Z" fill="white"/>
<path d="M69.5813 70.7488V71.7497L71.73 70.7488H69.5813Z" fill="#C7202F"/>
<path d="M69.9872 71.9249L69.3521 71.1116L71.7303 70.7488L69.9872 71.9249Z" fill="#C7202F"/>
<path d="M69.5816 70.7488V71.7497L67.4329 70.7488H69.5816Z" fill="#C7202F"/>
<path d="M69.1761 71.9249L69.7977 71.1116L67.4329 70.7488L69.1761 71.9249Z" fill="#C7202F"/>
<path d="M70.2423 71.2021L69.2151 71.5024L70.9043 73.0914L70.2423 71.2021Z" fill="#C7202F"/>
<path d="M69.175 71.9241L69.7968 71.1108L70.9049 73.0877L69.175 71.9241Z" fill="#C7202F"/>
<path d="M68.9185 71.2004L69.9318 71.5007L69.5805 69.2986L68.9185 71.2004Z" fill="#C7202F"/>
<path d="M70.2423 71.2004L69.2151 71.5007L69.58 69.2986L70.2423 71.2004Z" fill="#C7202F"/>
<path d="M68.9185 71.2021L69.9319 71.5024L68.2427 73.0914L68.9185 71.2021Z" fill="#C7202F"/>
<path d="M69.986 71.9241L69.351 71.1108L68.2427 73.0877L69.986 71.9241Z" fill="#C7202F"/>
<path d="M78.1077 77.3953V78.734L81.0131 77.3953H78.1077Z" fill="white"/>
<path d="M78.6628 78.9717L77.8115 77.8832L81.0142 77.3953L78.6628 78.9717Z" fill="white"/>
<path d="M78.1079 77.3953V78.734L75.2161 77.3953H78.1079Z" fill="white"/>
<path d="M77.5539 78.9717L78.4188 77.8832L75.2161 77.3953L77.5539 78.9717Z" fill="white"/>
<path d="M79.0128 77.9949L77.6345 78.4078L79.9048 80.5473L79.0128 77.9949Z" fill="white"/>
<path d="M77.5547 78.9699L78.4196 77.8813L79.9061 80.5463L77.5547 78.9699Z" fill="white"/>
<path d="M77.2158 77.9936L78.5941 78.4064L78.1076 75.4412L77.2158 77.9936Z" fill="white"/>
<path d="M79.0128 77.9936L77.6345 78.4064L78.1075 75.4412L79.0128 77.9936Z" fill="white"/>
<path d="M77.2153 77.9949L78.5936 78.4078L76.3235 80.5473L77.2153 77.9949Z" fill="white"/>
<path d="M78.6613 78.9699L77.81 77.8813L76.3235 80.5463L78.6613 78.9699Z" fill="white"/>
<path d="M78.1077 77.7307V78.5565L79.905 77.7307H78.1077Z" fill="#C7202F"/>
<path d="M78.4579 78.7066L77.9309 78.031L79.9037 77.7307L78.4579 78.7066Z" fill="#C7202F"/>
<path d="M78.1072 77.7307V78.5565L76.3235 77.7307H78.1072Z" fill="#C7202F"/>
<path d="M77.7693 78.7066L78.2963 78.031L76.3235 77.7307L77.7693 78.7066Z" fill="#C7202F"/>
<path d="M78.6765 78.0955L77.8115 78.3582L79.2305 79.6845L78.6765 78.0955Z" fill="#C7202F"/>
<path d="M77.7693 78.7076L78.2965 78.032L79.2289 79.6835L77.7693 78.7076Z" fill="#C7202F"/>
<path d="M77.5547 78.0936L78.4196 78.3563L78.1087 76.5171L77.5547 78.0936Z" fill="#C7202F"/>
<path d="M78.6765 78.0936L77.8115 78.3563L78.1088 76.5171L78.6765 78.0936Z" fill="#C7202F"/>
<path d="M77.5533 78.0955L78.4181 78.3582L76.9993 79.6845L77.5533 78.0955Z" fill="#C7202F"/>
<path d="M78.4587 78.7076L77.9317 78.032L76.9993 79.6835L78.4587 78.7076Z" fill="#C7202F"/>
<path d="M59.6218 79.6943V81.1957L62.8786 79.6943H59.6218Z" fill="white"/>
<path d="M60.2422 81.4584L59.2827 80.2449L62.8772 79.6943L60.2422 81.4584Z" fill="white"/>
<path d="M59.622 79.6943V81.1957L56.3652 79.6943H59.622Z" fill="white"/>
<path d="M59.0003 81.4584L59.9598 80.2449L56.3652 79.6943L59.0003 81.4584Z" fill="white"/>
<path d="M60.6346 80.3711L59.0806 80.8339L61.6345 83.2361L60.6346 80.3711Z" fill="white"/>
<path d="M59.0002 81.4605L59.9597 80.2468L61.6353 83.2371L59.0002 81.4605Z" fill="white"/>
<path d="M58.6216 80.3704L60.1621 80.8333L59.6215 77.4927L58.6216 80.3704Z" fill="white"/>
<path d="M60.6346 80.3704L59.0806 80.8333L59.621 77.4927L60.6346 80.3704Z" fill="white"/>
<path d="M58.621 80.3711L60.1615 80.8339L57.6074 83.2361L58.621 80.3711Z" fill="white"/>
<path d="M60.2427 81.4605L59.2832 80.2468L57.6074 83.2371L60.2427 81.4605Z" fill="white"/>
<path d="M59.6218 80.0222V81.0232L61.784 80.0222H59.6218Z" fill="#C7202F"/>
<path d="M60.0397 81.1982L59.4045 80.3851L61.783 80.0222L60.0397 81.1982Z" fill="#C7202F"/>
<path d="M59.6212 80.0222V81.0232L57.4727 80.0222H59.6212Z" fill="#C7202F"/>
<path d="M59.2157 81.1982L59.8509 80.3851L57.4727 80.0222L59.2157 81.1982Z" fill="#C7202F"/>
<path d="M60.2831 80.4722L59.2695 80.785L60.9587 82.3741L60.2831 80.4722Z" fill="#C7202F"/>
<path d="M59.2153 81.1977L59.8505 80.3845L60.9586 82.3738L59.2153 81.1977Z" fill="#C7202F"/>
<path d="M58.959 80.4697L59.9861 80.7825L59.6212 78.5679L58.959 80.4697Z" fill="#C7202F"/>
<path d="M60.2831 80.4697L59.2695 80.7825L59.6209 78.5679L60.2831 80.4697Z" fill="#C7202F"/>
<path d="M58.9598 80.4722L59.9868 80.785L58.2976 82.3741L58.9598 80.4722Z" fill="#C7202F"/>
<path d="M60.0409 81.1977L59.4057 80.3845L58.2976 82.3738L60.0409 81.1977Z" fill="#C7202F"/>
</g>
</g>
<path d="M94.714 50.2507C96.092 48.8727 96.092 46.6679 94.714 45.3358L92.9226 43.4985C91.5906 42.1205 91.1772 39.6402 92.004 37.9866L93.1982 35.6899C94.025 33.9904 93.336 31.8775 91.6824 31.0047L89.3858 29.8105C88.5294 29.3055 87.8361 28.5653 87.3882 27.6777C86.9404 26.7901 86.7569 25.7926 86.8595 24.8038L87.2269 22.2775C87.5025 20.4402 86.2164 18.6028 84.3332 18.2813L81.8068 17.8679C79.9695 17.5464 78.1322 15.8009 77.8566 13.9177L77.3973 11.3913C77.1217 9.50809 75.3303 8.17604 73.447 8.49757L70.9207 8.86503C69.0375 9.14063 66.7867 7.9923 65.914 6.33872L64.7197 4.04207C64.2889 3.23013 63.5588 2.61784 62.6843 2.3349C61.8097 2.05196 60.8594 2.1206 60.0346 2.52628L57.7379 3.6746C56.0843 4.5014 53.604 4.13393 52.226 2.75594L50.3886 1.01049C49.7292 0.373415 48.8481 0.017334 47.9312 0.017334C47.0143 0.017334 46.1333 0.373415 45.4738 1.01049L43.6365 2.75594C42.2585 4.13393 39.8241 4.5014 38.1245 3.6746L35.8279 2.52628C35.0031 2.1206 34.0527 2.05196 33.1782 2.3349C32.3036 2.61784 31.5736 3.23013 31.1427 4.04207L29.9485 6.33872C29.4435 7.19507 28.7032 7.8884 27.8157 8.33625C26.9281 8.7841 25.9306 8.96763 24.9418 8.86503L22.4154 8.49757C20.5781 8.22197 18.7408 9.50809 18.4652 11.3913L18.0059 13.9177C17.7303 15.755 15.9389 17.5923 14.0556 17.8679L11.5293 18.3272C9.692 18.6028 8.31401 20.3942 8.63554 22.2775L9.00301 24.8038C9.2786 26.687 8.13028 28.9378 6.47669 29.8564L4.18004 31.0047C3.36811 31.4356 2.75581 32.1657 2.47287 33.0402C2.18993 33.9148 2.25857 34.8651 2.66425 35.6899L3.81258 37.9866C4.6853 39.6402 4.27191 42.1205 2.93985 43.4985L1.10253 45.3358C0.465456 45.9953 0.109375 46.8764 0.109375 47.7933C0.109375 48.7102 0.465456 49.5912 1.10253 50.2507L2.93985 52.088C4.27191 53.466 4.6853 55.9004 3.85851 57.6L2.66425 59.8966C2.25857 60.7214 2.18993 61.6718 2.47287 62.5463C2.75581 63.4209 3.36811 64.1509 4.18004 64.5818L6.47669 65.776C8.17621 66.6488 9.2786 68.8995 9.00301 70.7827L8.63554 73.3091C8.35994 75.1464 9.64607 76.9837 11.5293 77.2593L14.0556 77.7186C15.893 77.9942 17.7303 79.7856 18.0059 81.6689L18.4652 84.1952C18.7408 86.0325 20.5322 87.3646 22.4154 87.089L24.9418 86.7215C26.825 86.4459 29.0757 87.5483 29.9944 89.2478L31.1427 91.5445C31.5736 92.3564 32.3036 92.9687 33.1782 93.2516C34.0527 93.5346 35.0031 93.4659 35.8279 93.0602L38.1245 91.9119C39.8241 91.0392 42.2585 91.4526 43.6365 92.7847L45.4738 94.622C46.8518 95.9081 49.0566 95.9081 50.3886 94.622L52.226 92.7847C53.604 91.4067 56.0843 91.0392 57.7379 91.866L60.0346 93.0602C61.7341 93.887 63.847 93.1981 64.7197 91.5445L65.914 89.2478C66.7867 87.5483 69.0375 86.4459 70.9207 86.7215L73.447 87.089C75.2843 87.3646 77.1217 86.0784 77.4432 84.1952L77.8566 81.6689C78.1322 79.8315 79.9236 77.9942 81.8068 77.7186L84.3332 77.2593C86.1705 76.9837 87.5485 75.1923 87.2269 73.3091L86.8595 70.7827C86.5839 68.8995 87.7322 66.6488 89.3858 65.7301L91.6824 64.5818C92.4944 64.1509 93.1067 63.4209 93.3896 62.5463C93.6725 61.6718 93.6039 60.7214 93.1982 59.8966L92.0499 57.6C91.1772 55.9004 91.5906 53.466 92.9226 52.088L94.7599 50.2507H94.714ZM47.9542 88.0995C37.2643 88.0995 27.0123 83.853 19.4534 76.2941C11.8945 68.7352 7.64798 58.4831 7.64798 47.7933C7.64798 37.1034 11.8945 26.8513 19.4534 19.2925C27.0123 11.7336 37.2643 7.48704 47.9542 7.48704C58.6441 7.48704 68.8961 11.7336 76.455 19.2925C84.0139 26.8513 88.2604 37.1034 88.2604 47.7933C88.2604 58.4831 84.0139 68.7352 76.455 76.2941C68.8961 83.853 58.6441 88.0995 47.9542 88.0995Z" fill="#01225D"/>
<path d="M19.5674 30.913H76.5243C76.9314 30.8833 77.3231 30.7457 77.6593 30.5143C77.9955 30.2829 78.264 29.9661 78.4371 29.5965C78.6102 29.2269 78.6817 28.8179 78.6442 28.4114C78.6067 28.005 78.4616 27.616 78.2238 27.2843C74.8922 22.3385 70.4001 18.2838 65.14 15.4747C59.8799 12.6655 54.0118 11.1872 48.0486 11.1691C42.0854 11.151 36.2084 12.5935 30.9313 15.3707C25.6542 18.1478 21.1376 22.1751 17.776 27.1005C17.4805 27.4365 17.2896 27.8514 17.2267 28.2944C17.1638 28.7374 17.2316 29.1891 17.4219 29.594C17.6122 29.9989 17.9166 30.3395 18.2977 30.5738C18.6789 30.8081 19.1201 30.926 19.5674 30.913Z" fill="#01225D"/>
<rect x="11.6321" y="34.4441" width="71.5134" height="28.6959" fill="white"/>
<path d="M11.5508 61C11.0495 61 10.7988 60.7314 10.7988 60.1943V46.4014C10.7988 45.8643 11.0495 45.5957 11.5508 45.5957H20.0479C20.585 45.5957 20.8535 45.8285 20.8535 46.2939V47.5615C20.8535 48.027 20.585 48.2598 20.0479 48.2598H13.9355V51.998H19.167C19.7041 51.998 19.9727 52.2308 19.9727 52.6963V53.9639C19.9727 54.4294 19.7041 54.6621 19.167 54.6621H13.9355V60.1943C13.9355 60.7314 13.6849 61 13.1836 61H11.5508ZM21.5367 53.2979C21.5367 50.8271 22.1741 48.8649 23.4488 47.4111C24.7236 45.9574 26.5426 45.2305 28.9059 45.2305C31.2691 45.2305 33.0882 45.9574 34.3629 47.4111C35.6376 48.8649 36.275 50.8271 36.275 53.2979C36.275 55.7686 35.6376 57.7308 34.3629 59.1846C33.0882 60.6383 31.2691 61.3652 28.9059 61.3652C26.5426 61.3652 24.7236 60.6383 23.4488 59.1846C22.1741 57.7308 21.5367 55.7686 21.5367 53.2979ZM24.8883 53.2979C24.8883 55.0882 25.207 56.4596 25.8443 57.4121C26.4889 58.3574 27.5094 58.8301 28.9059 58.8301C30.3023 58.8301 31.3193 58.3574 31.9566 57.4121C32.6012 56.4596 32.9234 55.0882 32.9234 53.2979C32.9234 51.5075 32.6012 50.1396 31.9566 49.1943C31.3193 48.2419 30.3023 47.7656 28.9059 47.7656C27.5094 47.7656 26.4889 48.2419 25.8443 49.1943C25.207 50.1396 24.8883 51.5075 24.8883 53.2979ZM38.5695 61C38.0682 61 37.8176 60.7314 37.8176 60.1943V46.4014C37.8176 45.8643 38.0682 45.5957 38.5695 45.5957H43.5432C45.7561 45.5957 47.371 45.9395 48.3879 46.627C49.4048 47.3073 49.9133 48.4173 49.9133 49.957C49.9133 51.1029 49.5015 52.016 48.6779 52.6963C47.8544 53.3766 46.8088 53.8278 45.5412 54.0498V54.0713C46.2287 54.3291 46.7479 54.6872 47.0988 55.1455C47.4497 55.6038 47.7362 56.0049 47.9582 56.3486L50.3215 60.0762C50.7154 60.6921 50.5793 61 49.9133 61H48.0441C47.6503 61 47.328 60.7887 47.0773 60.3662L44.9074 56.7461C44.6711 56.3594 44.2378 55.9368 43.6076 55.4785C42.9846 55.013 42.3651 54.7803 41.7492 54.7803H40.9543V60.1943C40.9543 60.7314 40.7036 61 40.2023 61H38.5695ZM40.9543 52.1162H42.8771C44.3094 52.1162 45.3264 51.9551 45.9279 51.6328C46.5367 51.3034 46.841 50.7842 46.841 50.0752C46.841 49.3018 46.5474 48.8005 45.9602 48.5713C45.3801 48.335 44.5243 48.2168 43.3928 48.2168H40.9543V52.1162ZM59.2289 61C58.7276 61 58.477 60.7314 58.477 60.1943V46.4014C58.477 45.8643 58.7276 45.5957 59.2289 45.5957H60.8187C61.4346 45.5957 61.9001 45.8464 62.2152 46.3477L67.6937 55.1455H67.7689C67.7331 54.7158 67.7152 54.2861 67.7152 53.8564V46.4014C67.7152 45.8643 67.9659 45.5957 68.4672 45.5957H70.1C70.6013 45.5957 70.852 45.8643 70.852 46.4014V60.1943C70.852 60.7314 70.6013 61 70.1 61H68.6176C68.0017 61 67.5362 60.7493 67.2211 60.248L61.6352 51.2891H61.56C61.5958 51.7188 61.6137 52.1484 61.6137 52.5781V60.1943C61.6137 60.7314 61.363 61 60.8617 61H59.2289ZM72.9316 61C72.3945 61 72.126 60.7673 72.126 60.3018V59.4209C72.126 58.9268 72.3086 58.429 72.6738 57.9277L79.6562 48.2812V48.2061C79.2266 48.2419 78.7969 48.2598 78.3672 48.2598H73.3613C72.8242 48.2598 72.5557 48.027 72.5557 47.5615V46.2939C72.5557 45.8285 72.8242 45.5957 73.3613 45.5957H83.1582C83.6953 45.5957 83.9639 45.8285 83.9639 46.2939V47.0137C83.9639 47.3932 83.8385 47.7549 83.5879 48.0986L76.1758 58.3145V58.3896C76.6055 58.3538 77.0352 58.3359 77.4648 58.3359H83.459C83.9961 58.3359 84.2646 58.5687 84.2646 59.0342V60.3018C84.2646 60.7673 83.9961 61 83.459 61H72.9316Z" fill="#E50E2E"/>
<path d="M12.2969 42C12.1146 42 12.0234 41.9023 12.0234 41.707V36.6914C12.0234 36.4961 12.1146 36.3984 12.2969 36.3984H13.4297C13.5807 36.3984 13.6888 36.5026 13.7539 36.7109L14.8125 40.1367C14.8594 40.2852 14.8919 40.4076 14.9102 40.5039C14.9284 40.5977 14.944 40.7096 14.957 40.8398H14.9805C14.9935 40.7096 15.0091 40.5977 15.0273 40.5039C15.0456 40.4076 15.0781 40.2852 15.125 40.1367L16.1836 36.7109C16.2487 36.5026 16.3568 36.3984 16.5078 36.3984H17.6406C17.8229 36.3984 17.9141 36.4961 17.9141 36.6914V41.707C17.9141 41.9023 17.8229 42 17.6406 42H17.0469C16.8646 42 16.7734 41.9023 16.7734 41.707V38.4805C16.7734 38.3242 16.7799 38.168 16.793 38.0117H16.7656L15.6367 41.6836C15.5716 41.8945 15.4596 42 15.3008 42H14.6367C14.4779 42 14.3659 41.8945 14.3008 41.6836L13.1719 38.0117H13.1445C13.1576 38.168 13.1641 38.3242 13.1641 38.4805V41.707C13.1641 41.9023 13.0729 42 12.8906 42H12.2969ZM18.9883 42C18.8008 42 18.7396 41.9141 18.8047 41.7422L20.7188 36.7148C20.7995 36.5039 20.9219 36.3984 21.0859 36.3984H21.6328C21.7969 36.3984 21.9193 36.5039 22 36.7148L23.9141 41.7422C23.9792 41.9141 23.918 42 23.7305 42H23.1094C22.9375 42 22.8177 41.9102 22.75 41.7305L22.3516 40.6797H20.3672L19.9688 41.7305C19.901 41.9102 19.7812 42 19.6094 42H18.9883ZM20.7305 39.7109H21.9883L21.5078 38.4688C21.4505 38.3229 21.4154 38.2174 21.4023 38.1523C21.3919 38.0846 21.3802 37.9857 21.3672 37.8555H21.3516C21.3385 37.9857 21.3255 38.0846 21.3125 38.1523C21.3021 38.2174 21.2682 38.3229 21.2109 38.4688L20.7305 39.7109ZM24.8828 42C24.7005 42 24.6094 41.9023 24.6094 41.707V36.6914C24.6094 36.4961 24.7005 36.3984 24.8828 36.3984H26.2461C27.444 36.3984 28.2539 36.6406 28.6758 37.125C29.1003 37.6094 29.3125 38.2982 29.3125 39.1914C29.3125 40.0846 29.1003 40.776 28.6758 41.2656C28.2539 41.7552 27.444 42 26.2461 42H24.8828ZM25.75 41.0312H26.1719C26.9792 41.0312 27.5013 40.8815 27.7383 40.582C27.9753 40.2799 28.0938 39.8164 28.0938 39.1914C28.0938 38.5664 27.9753 38.1055 27.7383 37.8086C27.5013 37.5091 26.9792 37.3594 26.1719 37.3594H25.75V41.0312ZM30.5469 42C30.3646 42 30.2734 41.9023 30.2734 41.707V36.6914C30.2734 36.4961 30.3646 36.3984 30.5469 36.3984H33.8984C34.0938 36.3984 34.1914 36.4831 34.1914 36.6523V37.1133C34.1914 37.2826 34.0938 37.3672 33.8984 37.3672H31.4141V38.6094H33.6914C33.8867 38.6094 33.9844 38.694 33.9844 38.8633V39.3242C33.9844 39.4935 33.8867 39.5781 33.6914 39.5781H31.4141V41.0312H34.0234C34.2188 41.0312 34.3164 41.1159 34.3164 41.2852V41.7461C34.3164 41.9154 34.2188 42 34.0234 42H30.5469ZM38.2812 42C38.099 42 38.0078 41.9023 38.0078 41.707V36.6914C38.0078 36.4961 38.099 36.3984 38.2812 36.3984H38.875C39.0573 36.3984 39.1484 36.4961 39.1484 36.6914V41.707C39.1484 41.9023 39.0573 42 38.875 42H38.2812ZM40.6719 42C40.4896 42 40.3984 41.9023 40.3984 41.707V36.6914C40.3984 36.4961 40.4896 36.3984 40.6719 36.3984H41.25C41.474 36.3984 41.6432 36.4896 41.7578 36.6719L43.75 39.8711H43.7773C43.7643 39.7148 43.7578 39.5586 43.7578 39.4023V36.6914C43.7578 36.4961 43.849 36.3984 44.0312 36.3984H44.625C44.8073 36.3984 44.8984 36.4961 44.8984 36.6914V41.707C44.8984 41.9023 44.8073 42 44.625 42H44.0859C43.862 42 43.6927 41.9089 43.5781 41.7266L41.5469 38.4688H41.5195C41.5326 38.625 41.5391 38.7812 41.5391 38.9375V41.707C41.5391 41.9023 41.4479 42 41.2656 42H40.6719ZM48.6836 37.3984C48.4883 37.3984 48.3906 37.3138 48.3906 37.1445V36.6523C48.3906 36.4831 48.4883 36.3984 48.6836 36.3984H52.6992C52.8945 36.3984 52.9922 36.4831 52.9922 36.6523V37.1445C52.9922 37.3138 52.8945 37.3984 52.6992 37.3984H51.2617V41.7852C51.2617 41.9284 51.1966 42 51.0664 42H50.3164C50.1862 42 50.1211 41.9284 50.1211 41.7852V37.3984H48.6836ZM54.0234 42C53.8411 42 53.75 41.9023 53.75 41.707V36.6914C53.75 36.4961 53.8411 36.3984 54.0234 36.3984H54.6172C54.7995 36.3984 54.8906 36.4961 54.8906 36.6914V38.6016H56.9922V36.6914C56.9922 36.4961 57.0833 36.3984 57.2656 36.3984H57.8594C58.0417 36.3984 58.1328 36.4961 58.1328 36.6914V41.707C58.1328 41.9023 58.0417 42 57.8594 42H57.2656C57.0833 42 56.9922 41.9023 56.9922 41.707V39.5703H54.8906V41.707C54.8906 41.9023 54.7995 42 54.6172 42H54.0234ZM59.6562 42C59.474 42 59.3828 41.9023 59.3828 41.707V36.6914C59.3828 36.4961 59.474 36.3984 59.6562 36.3984H63.0078C63.2031 36.3984 63.3008 36.4831 63.3008 36.6523V37.1133C63.3008 37.2826 63.2031 37.3672 63.0078 37.3672H60.5234V38.6094H62.8008C62.9961 38.6094 63.0938 38.694 63.0938 38.8633V39.3242C63.0938 39.4935 62.9961 39.5781 62.8008 39.5781H60.5234V41.0312H63.1328C63.3281 41.0312 63.4258 41.1159 63.4258 41.2852V41.7461C63.4258 41.9154 63.3281 42 63.1328 42H59.6562ZM67.1172 39.668V36.6133C67.1172 36.4701 67.2083 36.3984 67.3906 36.3984H67.9844C68.1667 36.3984 68.2578 36.4701 68.2578 36.6133V39.6289C68.2578 40.332 68.3607 40.7721 68.5664 40.9492C68.7747 41.1237 69.0091 41.2109 69.2695 41.2109C69.5299 41.2109 69.763 41.1237 69.9688 40.9492C70.1771 40.7721 70.2812 40.332 70.2812 39.6289V36.6133C70.2812 36.4701 70.3724 36.3984 70.5547 36.3984H71.1484C71.3307 36.3984 71.4219 36.4701 71.4219 36.6133V39.668C71.4219 40.5794 71.2292 41.2188 70.8438 41.5859C70.4583 41.9505 69.9336 42.1328 69.2695 42.1328C68.6055 42.1328 68.0807 41.9505 67.6953 41.5859C67.3099 41.2188 67.1172 40.5794 67.1172 39.668ZM72.7383 41.582C72.5768 41.4596 72.5378 41.3359 72.6211 41.2109L72.9219 40.7578C73.0208 40.6094 73.1654 40.6016 73.3555 40.7344C73.5013 40.8359 73.6914 40.9414 73.9258 41.0508C74.1628 41.1576 74.4115 41.2109 74.6719 41.2109C74.8542 41.2109 75.0299 41.1901 75.1992 41.1484C75.3685 41.1068 75.4974 41.026 75.5859 40.9062C75.6745 40.7865 75.7188 40.6445 75.7188 40.4805C75.7188 40.3633 75.6992 40.2604 75.6602 40.1719C75.6211 40.0833 75.5573 40.0104 75.4688 39.9531C75.3802 39.8958 75.2891 39.8477 75.1953 39.8086C75.0312 39.7409 74.8242 39.6745 74.5742 39.6094C74.3268 39.5417 74.082 39.4609 73.8398 39.3672C73.6237 39.2839 73.4258 39.1693 73.2461 39.0234C73.0664 38.8776 72.9271 38.7135 72.8281 38.5312C72.7292 38.349 72.6797 38.1055 72.6797 37.8008C72.6797 37.4388 72.7969 37.1289 73.0312 36.8711C73.2656 36.6133 73.5352 36.4479 73.8398 36.375C74.1445 36.3021 74.4518 36.2656 74.7617 36.2656C75.069 36.2656 75.3854 36.3125 75.7109 36.4062C76.0391 36.5 76.2865 36.6172 76.4531 36.7578C76.6172 36.8958 76.6576 37.0208 76.5742 37.1328L76.2578 37.5586C76.151 37.7044 76.0078 37.7161 75.8281 37.5938C75.7135 37.5156 75.556 37.4284 75.3555 37.332C75.1576 37.2357 74.9505 37.1875 74.7344 37.1875C74.5807 37.1875 74.4388 37.2005 74.3086 37.2266C74.181 37.2526 74.0677 37.3151 73.9688 37.4141C73.8698 37.513 73.8203 37.6354 73.8203 37.7812C73.8203 37.9219 73.8568 38.0365 73.9297 38.125C74.0026 38.2109 74.0833 38.276 74.1719 38.3203C74.2604 38.362 74.3503 38.3971 74.4414 38.4258C74.7227 38.5169 74.974 38.5977 75.1953 38.668C75.4167 38.7357 75.6211 38.8112 75.8086 38.8945C76.069 39.0117 76.2682 39.1289 76.4062 39.2461C76.5443 39.3633 76.6576 39.5234 76.7461 39.7266C76.8372 39.9297 76.8828 40.1719 76.8828 40.4531C76.8828 40.8698 76.75 41.2148 76.4844 41.4883C76.2188 41.7591 75.9232 41.9336 75.5977 42.0117C75.2747 42.0924 74.9596 42.1328 74.6523 42.1328C74.1992 42.1328 73.8307 42.0885 73.5469 42C73.263 41.9141 72.9935 41.7747 72.7383 41.582ZM77.6055 42C77.418 42 77.3568 41.9141 77.4219 41.7422L79.3359 36.7148C79.4167 36.5039 79.5391 36.3984 79.7031 36.3984H80.25C80.4141 36.3984 80.5365 36.5039 80.6172 36.7148L82.5312 41.7422C82.5964 41.9141 82.5352 42 82.3477 42H81.7266C81.5547 42 81.4349 41.9102 81.3672 41.7305L80.9688 40.6797H78.9844L78.5859 41.7305C78.5182 41.9102 78.3984 42 78.2266 42H77.6055ZM79.3477 39.7109H80.6055L80.125 38.4688C80.0677 38.3229 80.0326 38.2174 80.0195 38.1523C80.0091 38.0846 79.9974 37.9857 79.9844 37.8555H79.9688C79.9557 37.9857 79.9427 38.0846 79.9297 38.1523C79.9193 38.2174 79.8854 38.3229 79.8281 38.4688L79.3477 39.7109Z" fill="#01225D"/>
<path d="M51.9043 19.292L49.7454 18.9705L48.8267 17.0413C48.3215 16.1226 47.5406 16.1226 47.0813 17.0413L46.1626 18.9705L44.0038 19.292C42.9933 19.4298 42.7177 20.1188 43.3607 20.8078L45.0143 22.4155L44.6468 24.5743C44.4631 25.5389 45.0143 26.0442 45.887 25.6308L47.954 24.5743L49.9751 25.6308C50.8937 25.9982 51.399 25.5389 51.2612 24.5743L50.8937 22.4155L52.5014 20.8078C53.1444 20.1188 52.9148 19.4298 51.9043 19.292ZM38.1244 20.7619L36.4708 20.5322L35.6899 18.9705C35.3224 18.1896 34.6794 18.1896 34.3119 18.9705L33.5311 20.5322L31.8315 20.7619C31.0047 20.8997 30.821 21.4509 31.3722 22.0021L32.6583 23.2882L32.3368 24.9877C32.2449 25.8145 32.6583 26.182 33.3473 25.8604L35.0009 24.9877L36.6545 25.8604C37.3435 26.182 37.8028 25.7686 37.665 24.9877L37.3435 23.2882L38.6755 22.0021C39.1808 21.4509 38.9511 20.8997 38.1703 20.7619H38.1244Z" fill="white"/>
<path d="M44.0039 19.292L46.1168 18.9705L47.0355 17.0413C47.5407 16.1226 48.3216 16.1226 48.7809 17.0413L49.7455 18.9705L51.9044 19.292C52.9149 19.4298 53.1446 20.1188 52.5015 20.8078L50.8938 22.4155L51.2154 24.5743C51.3991 25.5389 50.8479 26.0442 49.9752 25.6308L47.9082 24.5743L45.8871 25.6308C44.9685 25.9982 44.4632 25.5389 44.601 24.5743L44.9685 22.4155L43.3608 20.8078C42.7178 20.1188 42.9934 19.4298 44.0039 19.292ZM57.6919 20.7619L59.4374 20.5322L60.1723 18.9705C60.5398 18.1896 61.1828 18.1896 61.5503 18.9705L62.3312 20.5322L64.0307 20.7619C64.8575 20.8997 65.0412 21.4509 64.5359 22.0021L63.2039 23.2882L63.5254 24.9877C63.6632 25.8145 63.2039 26.182 62.5149 25.8604L60.8613 24.9877L59.2077 25.8604C58.5187 26.182 58.1053 25.7686 58.2431 24.9877L58.5187 23.2882L57.1867 22.0021C56.7273 21.4509 56.9111 20.8997 57.6919 20.7619Z" fill="white"/>
</g>
<defs>
<clipPath id="clip0_107_2858">
<rect width="96" height="96" fill="white"/>
</clipPath>
<clipPath id="clip1_107_2858">
<rect width="83" height="51" fill="white" transform="translate(6 63)"/>
</clipPath>
<clipPath id="clip2_107_2858">
<rect width="69" height="41.4" fill="white" transform="translate(13 63)"/>
</clipPath>
<clipPath id="clip3_107_2858">
<rect width="69" height="39" fill="white" transform="translate(13 63)"/>
</clipPath>
</defs>
</svg>
