<svg width="116" height="92" viewBox="0 0 116 92" fill="none" xmlns="http://www.w3.org/2000/svg"><g clip-path="url(#a)"><mask id="b" style="mask-type:alpha" maskUnits="userSpaceOnUse" x="-7" y="-19" width="130" height="130"><path d="M123-19H-7v130h130V-19Z" fill="#C4C4C4"/></mask><g mask="url(#b)"><path d="M116 43.4 6.5 71.9l3.5-13-9.7-9.4L109.8 21 105 34.3l11 9Z" fill="#fff"/><path d="M67.2 84.7A39.4 39.4 0 0 0 96 36.3 40.8 40.8 0 0 0 46.2 8.4a39.4 39.4 0 0 0-28.8 48.4 40.8 40.8 0 0 0 49.8 27.9Z" fill="#fff"/><path d="M67.8 84a40.6 40.6 0 0 1-43.6-16L17 70a2.6 2.6 0 0 0 2 1.5c1.7.3 3.8.8 4.8 2s1 3.3 1 5a2.6 2.6 0 0 0 2 2.5h1c5.2-.4 6.2.3 7.7 5v.1A2.7 2.7 0 0 0 38 88c.3 0 .7 0 1-.2 4.8-1.9 6-1.5 8.9 2.7a2.7 2.7 0 0 0 2.8 1.1c.4 0 .7-.2 1-.4 1.4-1.1 3.2-2.4 4.8-2.3 1.5 0 3.2 1.3 4.5 2.5 1.2 1 3 .8 3.9-.5 1-1.4 2.4-3 3.9-3.5 1.4-.3 2.8.1 5 1.2h.1a2.6 2.6 0 0 0 3.6-1.5L79 84c1.5-2 3.5-2 6.5-1.5 1.6.2 3-1 3-2.4.2-1.4.3-3 .8-4.1 1-2 3.5-2.4 5.5-2.6a2.5 2.5 0 0 0 2.3-2V70c-1.2-4.8-.7-6 4-8V62a2.5 2.5 0 0 0 1.6-2.6c0-.4-.2-.7-.4-1-.9-1.5-2-3.4-1.6-4.9.2-1.5 1.8-3 3.2-4a2.5 2.5 0 0 0 .8-2.4L97.4 49a39.1 39.1 0 0 1-29.6 35ZM47.1 9c17-4.4 34.5 2.5 43.7 16l7.2-2a2.6 2.6 0 0 0-2-1.5c-1.7-.3-3.8-.8-4.8-2s-1.1-3.3-1.1-5a2.6 2.6 0 0 0-1.8-2.5h-1.1c-5.1.4-6.2-.3-7.7-5v-.1A2.7 2.7 0 0 0 77.1 5c-.4 0-.8 0-1 .2l-2.5.9c-3.3.8-4.6-.8-6.5-3.6a2.7 2.7 0 0 0-2.9-1.1c-.3 0-.6.2-1 .4-1 .9-2.4 1.9-3.6 2.2-2.1.5-4.1-1-5.7-2.4a2.7 2.7 0 0 0-3.9.5c-1 1.4-2.2 3-3.8 3.5-1.5.4-3.6-.4-5.2-1.2A2.6 2.6 0 0 0 37.4 6c-.6 1.6-1.3 3.5-2.6 4.3-1.5.8-3.5.6-5.3.3a2.6 2.6 0 0 0-2.7 1.4c-.2.3-.3.7-.3 1 0 1.4-.2 3-.7 4.1-1 2-3.5 2.4-5.6 2.6a2.5 2.5 0 0 0-2.2 2V23c.4 1.7 1 3.6.2 5-.7 1.4-2.6 2.4-4.2 3.1a2.5 2.5 0 0 0-1.6 2.6c0 .4.2.7.4 1 2.5 4.4 2.3 5.6-1.6 9-.7.5-1 1.4-.9 2.3l7.3-1.9A39.1 39.1 0 0 1 47 9Z" fill="#3A9B2C"/><path d="m23.3 31.1-.6-.2-.5 1.1.6.3.5-1.2ZM27 25l-.5-.4-.8 1 .5.4.8-1Zm-4.8 8.5-.6-.2-.4 1.1.6.2.4-1.1Zm3.4-6.5-.6-.3-.6 1 .5.3.7-1Zm-1.3 2-.6-.2-.6 1 .6.4.6-1.1Zm60-8.9-.9-.8-.4.4 1 .9.4-.5ZM20 42.8h-.6l-.1.8.6-.2v-.6Zm.8-4.8-.6-.1-.3 1.2h.6l.3-1.1Zm-.5 2.4-.6-.1-.2 1.2h.6l.2-1.1Zm1.2-4.7-.6-.2-.4 1.2.6.1.4-1.1Zm33-26.3-1.3.1v.6h1.3v-.7Zm12.5 1-1.2-.2-.2.6 1.3.2.1-.6Zm4.8 1.6-1.2-.5-.2.6 1.2.5.2-.6Zm-41.5 9.2-.5-.4-.9.9.5.4.9-1ZM64.5 9.9l-1.2-.2-.1.6 1.2.2.1-.6ZM62 9.6l-1.2-.2v.6l1.2.2v-.6Zm-2.5-.3h-1.3v.6h1.3v-.6Zm-2.5 0h-1.3v.6H57v-.6Zm23.6 7.5a32 32 0 0 0-1-.7l-.4.5 1 .7.4-.5ZM74.2 13l-1.2-.5-.3.5 1.2.5.3-.5Zm8.4 5.4-1-.8-.4.5 1 .7.4-.4ZM76.4 14l-1.1-.6-.3.6 1 .6.4-.6Zm2.1 1.3-1-.6-.3.5 1 .6.4-.5Zm-9-4.3-1.3-.3-.1.6 1.2.3.2-.6Zm-31.5 4-.3-.5-1 .7.2.5 1.1-.6Zm-2 1.4-.4-.5-1 .7.3.5 1-.7Zm6.4-3.6-.2-.5-1.2.5.3.5 1.1-.5Zm-2.2 1-.3-.5-1.1.6.3.6 1-.6ZM32 19.6l-.4-.5-.9.9.4.4 1-.8Zm2-1.6-.5-.4-1 .7.5.5 1-.8Zm15.4-7.8-1.2.3.1.6 1.2-.3v-.6Zm2.5-.4-1.2.2v.6l1.3-.2-.1-.6Zm36.7 15-.5.4.3.5.7-.2-.5-.7ZM47 11.3l-.1-.6-1.3.4.2.6 1.2-.4Zm-2.3.8-.3-.6-1.1.4.2.6 1.2-.4ZM28.6 23l-.5-.4-.8 1 .5.3.8-.9Zm58.7 1 .5-.3-.8-1-.5.4.8 1Zm-1.1-2.2-.9-.9-.4.4.8 1 .5-.5Zm-40.2 6-.3-.5-1 .7.3.5 1-.6ZM64 25.8l1.1.3.2-.5L64 25l-.1.6ZM37.7 35l.6.3.6-1-.5-.4-.7 1Zm14.6-9.7.6-.1-.2-.6-1.2.2.2.6.6-.1Zm18.2 3.4 1 .7.4-.5-1-.7-.4.5ZM68.7 27l-.3.5 1 .6.4-.5-1.1-.6Zm-2.5-.5 1.1.5.3-.6-1.2-.5-.2.6Zm-3.4-1.7-1.2-.3-.1.6 1.2.3.1-.6ZM36.6 37.3l.5.2.6-1-.6-.3-.5 1Zm7-8.6-1 .8.4.4 1-.7-.4-.5Zm6.7-3.4-1.2.4.2.6 1.2-.4-.2-.6Zm6.2-1.1v.6h1.3v-.6h-1.3Zm-2.4.8 1.2-.1v-.6l-1.3.1v.6Zm-7.3 1.7.3.6 1-.6-.2-.5-1.1.5Zm-6 4.5.4.4.9-.9-.4-.4-1 .9Zm19.5-6.9H59v.5l1.2.1.1-.6ZM39.1 33l.5.4.8-1-.5-.3-.8 1Zm-2.5 5.6-.5-.2-.4.9.8-.2.1-.5Zm16.6-10.4L52 26.6l-.2 2-2 .6 1.9.9v2l1.4-1.5 2 .6-1-1.7 1.2-1.7-2 .4ZM60 28l-1-1.3-.2 1.6-1.5.5 1.5.6v1.5l1-1.1 1.6.4-.8-1.3.9-1.2-1.5.3Zm5 3.2 1 .3h.2l-.6-1 .7-.8-1.1.2-.7-1-.1 1.2-1.1.3 1 .5v1h.1l.7-.7ZM64.4 31.8v.1Zm1.8-.4H66h.1Zm-19.3-.1-1-1.3-.1 1.6-1.5.5 1.4.6v1.5l1-1.1 1.6.4-.8-1.3 1-1.2-1.6.3Zm-4 5.6 1 .3h.1l-.5-1 .7-.9-1.1.2-.7-.9-.2 1.1-1 .4 1 .5v1h.1l.7-.7ZM44 37.2Zm-1.7.4h-.1.1ZM29.7 72l.9.9.4-.5-.9-.8-.4.4ZM28 70.3l.8.9.5-.4-.8-1-.5.5Zm3.5 3.5 1 .8.3-.4-1-.8-.3.4Zm1.9 1.6 1 .8.4-.5-1-.7-.4.4Zm2 1.5 1 .7.4-.5-1-.7-.4.5ZM27 68l-.5.4.8 1 .5-.4-.8-1Zm11 9.8-.4.6 1.1.6.3-.5-1-.7Zm38 .7.3.6 1.1-.7-.3-.5-1 .6Zm-2.2 1.1.3.6 1.1-.5-.3-.6-1 .5Zm4.4-2.3.3.5 1-.7-.3-.5-1 .7Zm2-1.4.4.5 1-.8-.4-.4-1 .7Zm-8.7 4.7.3.6 1.1-.5-.2-.6-1.2.5ZM82 74.3l.5.5 1-.9-.5-.4-1 .8Zm1.9-1.6.4.4 1-.9-.5-.4-1 .9ZM69 81.3l.2.6 1.2-.4-.2-.6-1.2.4Zm-12.3 2.4h1.3v-.6h-1.3v.6Zm5-.2 1.3-.2v-.6l-1.3.2v.6Zm2.6-.4 1.2-.2-.1-.6-1.3.2.2.6Zm2.3-1.1.1.6 1.3-.3-.2-.6-1.2.3Zm-7.4 1.7 1.3-.1V83h-1.3v.7Zm34-23.9-.6-.2-.5 1.1.6.3.5-1.2ZM91.2 63l.6.3.5-1.1-.6-.3-.5 1.1Zm3.6-7.8-.6-.1-.3 1.2.6.1.3-1.2Zm.8-4.8-.6-.1-.1 1.2h.6l.1-1.1ZM87.2 69l.5.3.8-1-.6-.3-.7 1Zm1.5-2 .5.3.7-1-.5-.3-.7 1Zm1.3-2 .5.3.7-1.1-.6-.3-.6 1Zm5.3-12.4h-.6l-.2 1.1.6.1.2-1.2ZM85.6 71l.5.4.8-1-.5-.3-.8 1Zm8.5-13.4-.6-.2-.4 1.2.6.2.4-1.2ZM49.2 82.8l1.3.3.1-.6-1.2-.3-.2.6ZM42 80.5l1.2.5.2-.5a23 23 0 0 1-1.1-.5l-.3.5Zm2.4 1 1.2.4.2-.6-1.2-.4-.2.6Zm9.9 2 1.2.2V83l-1.2-.1v.6Zm-2.6-.2 1.3.2v-.6l-1.2-.2v.6Zm-12-3.8 1.2.5.2-.5-1-.6-.4.6Zm7 2.7 1.3.4.2-.6a39 39 0 0 1-1.2-.4l-.2.6ZM45.7 65l-1-.7-.4.5 1 .7.4-.5Zm2.1 1.1-1-.5-.4.5 1.1.6.3-.6Zm26-4.6.5.4.9-.9-.5-.4-.8 1v-.1ZM50 67l-1.2-.5-.2.6 1.2.4.2-.5Zm26.6-8-.5-.4-.7 1 .5.3.7-1Zm2.3-4.4-.6-.2c0 .3-.2.7-.4 1l.5.3.5-1.1Zm-1 2.2-.6-.3-.6 1 .6.4.6-1ZM43.2 64l.4-.5-.5-.4-.7.2.8.7Zm20.3 4 1.2-.3-.2-.6-1.2.4.2.6Zm-2.5.6 1.3-.3-.2-.6-1.2.3.1.6Zm-8.7-1-1.1-.3-.2.6 1.2.3.1-.6Zm21-5-.4-.3-.9.8.4.4 1-.8Zm-18.5 5.5-1.2-.2-.1.6 1.2.2V68ZM71 63.8l-1 .7.4.5 1-.7-.4-.5Zm-15 5h1.2v-.6H56v.6Zm2.5 0h1.3l-.1-.7-1.2.1v.6Zm7.4-1.5 1.2-.5-.3-.6-1.1.5.2.6Zm2-1.6.3.6 1.1-.6-.3-.6-1 .6Zm-4.7-1.3 2-.6-2-.9v-2L62 62.4l-2-.6 1 1.7-1.2 1.7 2-.4 1.3 1.6.2-2Zm5-2.7L69 63l.2-1.6 1.5-.4-1.4-.7v-1.5l-1 1.1-1.6-.4.8 1.3-1 1.2 1.6-.3Zm2.6-4 1.1-.2.7.9.2-1.1 1-.4-1-.5v-1h-.1l-.7.7-1-.3.5 1-.7.9ZM71 55.8Zm1.8-.5-.1.1ZM55 65.1l1 1.3.2-1.6 1.5-.5-1.5-.6v-1.5l-1 1.1-1.6-.4.8 1.3-.9 1.2 1.5-.3Zm-6.3-1.6 1.1-.3.7 1 .1-1.2 1.1-.3-1-.5v-1h-.1l-.7.7-1-.3.5 1-.7.9ZM48.8 61.6h.1-.1Zm1.9-.5h-.1ZM29.8 36.6l-1-.4 1-2.5 2.3.8a4 4 0 0 1 0 2.8c-.2.6-.5 1.1-1 1.5-.4.3-.9.6-1.4.6a4 4 0 0 1-3.3-1.2c-.4-.4-.6-.9-.7-1.5 0-.4 0-.9.2-1.4.3-.8.7-1.3 1.1-1.6.5-.3 1-.4 1.6-.3l-.2 1.2c-.3 0-.6 0-.9.3-.2.1-.4.4-.5.7-.2.5-.2 1 0 1.4.2.4.7.7 1.3 1 .7.2 1.3.3 1.8 0 .5-.1.8-.5 1-1v-1.5l-.8-.3-.5 1.4ZM28 30.8l.7-1 2.9 1.7 1 .6h.6c.3-.1.5-.3.7-.6l.3-.8-.3-.6-.9-.6-3-1.8.8-1 2.8 1.7 1.3 1 .4.7c.1.2.1.5 0 .8 0 .4-.2.7-.4 1.1-.4.5-.7.9-1 1a1.8 1.8 0 0 1-1.6.2c-.5-.1-1-.4-1.4-.7L28 30.8Zm12.8-5.5-1 1-1.4-.7-1.8 1.8.6 1.3-1 1-2.6-6.1 1-1 6.2 2.7Zm-3.4-.1-2.3-1 1 2.2 1.3-1.2Zm3.7 0-3.3-5.3 2.3-1.4 1.3-.6 1 .1.7.7c.3.4.4.8.3 1.2 0 .4-.3.8-.7 1.1l.8.1 1.2.5 1.3.6-1.3.8-1.5-.6a12 12 0 0 0-1-.5 1 1 0 0 0-.6 0l-.5.3-.3.1 1.4 2.2-1 .6Zm-.8-3.7.8-.5 1-.7.1-.4-.1-.4-.5-.4h-.5l-.8.5-.8.5.8 1.4Z" fill="#3A9B2C"/><path d="m51.8 20.3-1.4.4-1-1.1-2.3.8v1.5l-1.4.4.3-6.6 1.3-.4 4.5 5Zm-3-1.5-1.7-2v2.5l1.6-.5Zm3.3 1.5-.7-6.1 1.3-.2 3 3.8-.5-4 1.2-.2.7 6.1-1.2.2-3-3.7.4 4h-1.2Zm7.5-.4.5-5-1.9-.3.1-1 5 .4v1h-2l-.4 5-1.3-.1Zm3.7.4 1.8-6 4.5 1.4-.3 1-3.3-1-.4 1.4 3 .8-.2 1-3.1-.9-.5 1.7 3.4 1-.3 1-4.6-1.4Zm5.3 1.6 3-5.4 4.2 2.1-.5 1-3-1.6-.7 1.2 2.8 1.5-.5.9L71 20l-.8 1.5 3 1.6-.4 1-4.3-2.3Zm9-2 1.8 1.4.9.9c.2.3.3.6.3 1s0 .8-.2 1.1a4.7 4.7 0 0 1-1.8 2.2l-1.3.4c-.3 0-.6 0-1-.2l-1-.6-1.8-1.5 4.1-4.7Zm.3 1.5-2.7 3.2.7.6.7.4.5.1c.2 0 .4 0 .7-.2l.8-.8.7-1v-.6c0-.2 0-.4-.2-.6l-.7-.7-.5-.4ZM38.3 70.2l.7-.8 2.2 1.7-1.6 1.9c-1 0-2-.3-2.8-1-.5-.3-.8-.8-1-1.3-.3-.5-.3-1-.2-1.6.2-.5.4-1 .8-1.5s.9-.8 1.4-1c.6-.3 1.1-.3 1.7-.2.5 0 1 .3 1.4.7.6.5 1 1 1.1 1.5.2.5 0 1-.2 1.5l-1.1-.6c.1-.3.1-.5 0-.8 0-.3-.2-.6-.5-.8-.4-.3-.9-.5-1.4-.4-.4 0-.9.4-1.3 1-.5.5-.7 1-.7 1.5s.2.9.7 1.2l.7.4.8.1.5-.6-1.2-.9Zm5.3-1 1.1.5-1.5 3-.4 1v.6c.2.3.4.5.7.6.4.2.6.2.9.2.2 0 .4-.2.5-.4l.5-.9 1.6-3 1.1.5-1.4 2.9-.8 1.4a1.8 1.8 0 0 1-1.6.6L43 76c-.6-.3-1-.5-1.2-.8l-.4-.8v-.7c0-.4.3-.9.6-1.5l1.5-3Zm9.4 9.6-1.4-.3-.2-1.5-2.5-.5-.8 1.2-1.3-.3 3.9-5.4 1.3.3 1 6.5ZM51.3 76l-.3-2.4-1.4 2 1.7.4Zm3.2 3 .1-6h2.7c.5 0 1 0 1.5.2.3.1.5.3.7.6.2.3.3.6.3 1s-.2.8-.5 1.1a2 2 0 0 1-1.2.5l.6.6c.2.2.5.5.7 1l.8 1.2h-1.5l-1-1.4-.6-1a1 1 0 0 0-.4-.2H55.8V79h-1.3Zm1.3-3.4H58l.4-.3.2-.5-.2-.5a.8.8 0 0 0-.5-.2 9 9 0 0 0-1 0l-1-.1v1.6Zm11.5 2.3-1.3.3-.9-1.3-2.4.5-.3 1.5-1.3.2 1.2-6.5 1.3-.2 3.7 5.5Zm-2.8-2-1.3-2-.4 2.4 1.7-.3Zm4.3 1.5-2.5-5.6 1.1-.5 4 2.8-1.6-3.8 1-.5 2.6 5.7-1.2.5-4-2.7 1.7 3.7-1.1.4Zm7.6-3.8-3-4.1-1.5 1-.7-.8 4.2-2.8.6.8-1.5 1 3 4.3-1 .7Zm3.8-2.7-4.5-4.3 3.2-3.3.8.8-2.4 2.3 1 1 2.3-2.2.7.7-2.2 2.2 1.2 1.2 2.5-2.5.8.8-3.4 3.3Zm4.5-4.8-5.3-3.3 2.5-3.9 1 .6-2 2.8 1.3.7 1.7-2.6.9.6-1.7 2.6 1.4 1 2-3 .8.6-2.6 4Zm-2.4-7.7L83 56l.5-1 1-.7 1.1-.2 1.5.3c.5.2.9.4 1.2.7.4.3.6.6.8 1 .1.2.2.6.1 1 0 .2 0 .6-.2 1l-.9 2.2-6-2.1Zm1.4-.8 4 1.4.3-.9.2-.7v-.6l-.5-.5-1-.5-1.1-.3c-.3 0-.5 0-.7.2-.2 0-.4.2-.5.4l-.5 1-.2.5ZM105 34.2l4.8-13.4-11.6 3-7 1.8-17.9 4.7-.7.2-55 14.3-7 1.8-11.6 3 11 9.2-4.8 13.4 11.6-3 7-1.8 1.6-.5.7-.1L78.8 53l.8-.1L95 48.8l.7-.2 1.7-.4 6.9-1.8 11.6-3-11-9.3Zm2-11.8 1.2-.3v.3l-1.1.3-.1-.3Zm-2.4.7 1.2-.4v.4l-1.1.3-.1-.3Zm-2.4.6 1.2-.3v.3l-1.1.3-.1-.3ZM2.3 50l-1.2.3V50l1.1-.3.1.3Zm2.4-.6-1.2.3v-.3l1.1-.4.1.4Zm2.4-.7L6 49v-.3l1.1-.3.1.3Zm1 22-1.3.3v-.4l1.1-.3.1.3Zm2.3-.7-1.2.3V70l1.1-.3.1.3Zm2.5-.6-1.3.3v-.3l1.2-.3v.3Zm84.4-44.5.8-.2h.5v.2l-.7.2-.5.2v-.4Zm-2.4.7 1.2-.3.1.3-1.2.3v-.3Zm-2.4.6 1.2-.3.1.3-1.2.3v-.3Zm-2.3.9v-.3l1.1-.3.1.3-1.2.3Zm-2.5.3 1.2-.3.1.3-1.2.4v-.4Zm-2.4.7 1.2-.3.1.3-1.2.3-.1-.3Zm-2.4.6 1.2-.3v.3L83 29l-.1-.3Zm-2.4.6 1.2-.3v.3l-1.1.3-.1-.3Zm-2.4.6 1.2-.3v.3l-1.1.4-.1-.4Zm-2.4.7 1.2-.3v.3l-1.1.3-.1-.3Zm-4.8 1.2 1.2-.3v.3l-1.1.3-.1-.3Zm-2.4.6 1.2-.3v.4l-1.2.3v-.4Zm-2.4.7 1.1-.3.1.3-1.2.3v-.3Zm-2.5.6 1.2-.3.1.3-1.2.3v-.3Zm-2.4.6 1.2-.3.1.3-1.2.3v-.3Zm-2.4.7 1.2-.4.1.4-1.2.3V35Zm-2.4.6 1.2-.3.1.3-1.2.3v-.3Zm-2.4.6 1.2-.3.1.3-1.2.3-.1-.3Zm-2.4.6 1.2-.3.1.3-1.2.3-.1-.3Zm-2.4.7 1.2-.3v.3l-1.1.3-.1-.3Zm-2.4.6 1.2-.3v.3l-1.1.3-.1-.3Zm-2.4.6 1.2-.3v.3l-1.1.3-.1-.3Zm-7.2 1.9 1.2-.3v.3l-1.2.3v-.3Zm-2.5.6h.5l.7-.3.1.3h-.2l-.7.3h-.3v-.3Zm-2.4.6 1.2-.3.1.4-1.2.3v-.4Zm-2.4.7 1.2-.3.1.3-1.2.3v-.3Zm-2.4.6 1.2-.3.1.3-1.2.3v-.3Zm-2.4.6 1.2-.3.1.3-1.2.3v-.3Zm-2.4.7L24 44l.1.4-1.2.3v-.3Zm-2.4.6 1.2-.3.1.3-1.2.3-.1-.3Zm-2.4.6 1.2-.3V45.6L18 46l-.1-.3ZM13 46.9l1.2-.4v.4l-1.1.3-.1-.3Zm-2.4.6.5-.1.7-.2v.3l-.5.1-.7.2v-.3Zm4.6 21.3L14 69l-.1-.3 1.2-.3v.3ZM9.6 48l-1.2.3-.1-.3 1.2-.3v.3Zm8 20-.7.2-.4.2-.1-.4.6-.1.6-.2v.3Zm2.5-.6-1.2.3-.1-.3 1.2-.3v.3Zm-1.2-6-1.6.4-1.9-6.8c-.4.7-1 1.4-1.7 1.9l-.4-1.7c.4-.2.7-.6 1.1-1.2.4-.5.6-1.1.6-1.7l1.3-.4 2.6 9.5Zm3.6 5.4-1.2.3-.1-.3 1.2-.3v.3Zm-5.7-20.7-1.2.3-.1-.3 1.2-.3v.3Zm8 20-1.1.4-.1-.3 1.2-.3v.3Zm2.5-.6-1.2.4-.1-.4 1.2-.3.1.3ZM25.6 59a2.2 2.2 0 0 1-1.6 1.4c-.8.2-1.5 0-2.2-.5-.7-.6-1.3-1.8-1.8-3.6s-.6-3.1-.2-4a2.2 2.2 0 0 1 1.6-1.5 2.3 2.3 0 0 1 2.1.5c.8.6 1.4 1.8 2 3.6.4 1.8.5 3.1.1 4Zm4.1 6.1-1.2.3V65l1.1-.3.1.3Zm2.4-.6-1.2.3v-.3L32 64l.1.3Zm2.4-.6-1.2.3v-.3l1.1-.4.1.4Zm-2.4-6.6a2.2 2.2 0 0 1-1.6 1.4c-.8.2-1.5 0-2.2-.5-.7-.6-1.3-1.8-1.8-3.6s-.6-3.1-.3-4A2.2 2.2 0 0 1 28 49a2.3 2.3 0 0 1 2.1.5c.8.6 1.4 1.8 1.9 3.6s.6 3.1.2 4Zm4.8 6-1.2.2v-.3l1.1-.3.1.3Zm-3.6-11c-.4-.4-.8-1-1-1.8-.2-.9-.2-1.5 0-2s.6-.8 1.1-1c.6-.1 1.1 0 1.6.3.4.3.7.9 1 1.7.2.9.2 1.5 0 2s-.6.8-1.2 1c-.6.1-1 0-1.5-.3Zm4.6-6 1.2-.2-1.7 11-1.2.4L38 46.3Zm1.4 16.3-1.2.3v-.3l1.1-.3.1.3Zm2.4-.6-.7.2-.5.1v-.3l.2-.1.7-.2h.3v.3Zm2.5-.6-1.2.3-.1-.4L44 61v.3ZM43 55c-.2.5-.6.8-1.2 1-.6 0-1 0-1.5-.3-.4-.4-.8-1-1-1.8-.2-.8-.3-1.5 0-2 .2-.5.6-.8 1.1-1a1.7 1.7 0 0 1 1.6.3c.4.3.7.9 1 1.7.2.9.2 1.6 0 2Zm3.6 5.6-1.2.3-.1-.3 1.2-.3v.3ZM40.9 40l-1.2.3-.1-.3 1.2-.3v.3Zm8 20-1.1.3-.1-.3 1.2-.3v.3Zm-5.6-20.7-1.2.4-.1-.4 1.2-.3v.3Zm8 20-1.1.4-.1-.3 1.2-.3v.3Zm2.5-.6-1.2.4-.1-.4 1.2-.3v.3Zm2.4-.6-1.2.3-.1-.3 1.2-.3.1.3Zm-1.4-6-1.7.5-5-5.3 1.7 6.1-1.6.4-2.6-9.4 1.6-.4 5.2 5.4-1.8-6.3 1.6-.4 2.6 9.4Zm3.8 5.4-1.2.3v-.3l1.1-.3.1.3Zm2.4-.6-1.2.3v-.3l1.1-.3.1.3Zm2.4-.7-1.2.4v-.4l1.1-.3.1.3Zm-2.5-8-3.3 1v2.2l-1.9.5.7-10.3 1.8-.4 5.9 8.5-1.8.5-1.4-2Zm5 7.4-1.3.3v-.3l1.1-.3.1.3Zm2.3-.6-1.2.3V55l1.1-.3.1.3Zm2.4-.6-1.2.3v-.3l1.1-.4.1.4Zm-2.6-14-2.5.6 2.2 7.8-1.7.4-2.2-7.8-2.4.6-.5-1.6 6.6-1.7.5 1.6Zm5 13.3-1.2.4v-.4l1.2-.3v.3Zm2.4-.6-1.1.3-.1-.3 1.2-.3v.3Zm2.5-.6-1.2.3-.1-.3 1.2-.3v.3Zm-1.7-6c-.3.2-.8.5-1.5.6-.8.2-1.4.3-2 .2a2.8 2.8 0 0 1-1.9-1.5l-.8-2.3-1.4-5 1.7-.5 1.4 5.1.5 1.6.8.8h1.2c.5-.1.8-.3 1-.6.2-.3.2-.6.2-1l-.4-1.5-1.4-5.3 1.7-.4 1.3 5c.4 1 .5 2 .6 2.4a2.6 2.6 0 0 1-1 2.3Zm4 5.4-1 .2h-.1L79 52l1.2-.4v.4Zm-5.6-20.7-1.2.3-.1-.3 1.2-.3v.3Zm8 20-1.1.4-.1-.4 1.2-.3v.3Zm2.5-.6-1.2.3-.1-.3 1.2-.3v.3Zm-3-9.2-.6-.3-1 .1-.3.1 1.1 4-1.7.4-2.5-9.4 3.5-1a6 6 0 0 1 2-.2c.5 0 .9.3 1.2.6.4.4.6.9.8 1.4.2.7.2 1.4 0 2-.3.5-.8 1-1.5 1.2l1.1.6c.4.2.8.6 1.4 1.3l1.5 1.5-2 .6-1.8-1.8-1.2-1.1Zm5.4 8.6-1.2.3-.1-.3 1.2-.3.1.3Zm2.4-.6-1.2.3-.1-.3 1.2-.4.1.4Zm2.4-.7-1.2.4v-.4l1.1-.3.1.3Zm2.4-.6-1.2.3v-.3l1.1-.3.1.3Zm2.4-.6-1.2.3v-.3l1.1-.3.1.3Zm-3-5.6-1.2-2-3.4 1V43l-1.8.5.6-10.3L90 33l6 8.5-2 .5Zm5.4 5-1.2.3v-.3l1.1-.4.1.4Zm2.4-.7-1.2.3v-.3l1.1-.3.1.3Zm2.4-.6-.4.1-.8.2v-.3l.5-.1.7-.2v.3Zm-1.5-6L97 41.3l-2.6-9.4 1.7-.4 2.1 7.8 4.2-1.1.4 1.6Zm4 5.4-1.2.3-.1-.3 1.2-.3v.3ZM101 24.3l-1.1.3-.1-.3 1.2-.3v.3Zm8.2 20-1.2.4-.1-.3 1.2-.4v.4Zm2.4-.6-1.2.3-.1-.3 1.2-.3v.3Zm2.4-.6-1.2.3-.1-.3 1.2-.3v.3Z" fill="#3A9B2C"/><path d="m89.6 39 2.3-.5-2.1-3.2-.2 3.8ZM22.4 52.4a.8.8 0 0 0-1 .2c-.2.2-.2.5-.2.9 0 .5.2 1.3.5 2.4l.7 2.2.6.7c.2.1.4.2.6.1.2 0 .4-.2.5-.3l.1-.9c0-.5-.2-1.3-.5-2.4A12 12 0 0 0 23 53l-.6-.7Zm11.3-3.9a.4.4 0 0 0-.3.4l.1 1.3c.2.6.4 1 .6 1.1.1.2.3.2.4.2a.4.4 0 0 0 .4-.4l-.2-1.3-.5-1.1a.5.5 0 0 0-.5-.2Zm7 3.6a.4.4 0 0 0-.3.3l.1 1.3.6 1.2c.1 0 .3.1.4 0a.4.4 0 0 0 .3-.2c.1-.3 0-.7-.1-1.3a3 3 0 0 0-.5-1.2.5.5 0 0 0-.5-.1Zm17-4.6 2.3-.6-2.1-3.2-.2 3.8Zm25.2-9v-.7c0-.3-.2-.5-.4-.7a1 1 0 0 0-.8-.2c-.1 0-.5 0-1.2.3l-1.3.3.6 2.4 1.3-.3a6 6 0 0 0 1.5-.5c.1-.2.3-.3.3-.6ZM29 50.6a.8.8 0 0 0-1.1.2c-.1.2-.2.5-.1.9 0 .5.1 1.3.4 2.4l.8 2.2.6.8a.8.8 0 0 0 1-.3c.2-.2.2-.5.2-.9 0-.5-.2-1.2-.5-2.4-.2-.7-.4-1.5-.8-2.2-.2-.4-.4-.6-.6-.7Z" fill="#3A9B2C"/></g></g><defs><clipPath id="a"><path fill="#fff" d="M0 0h116v92H0z"/></clipPath></defs></svg>