<svg width="108" height="96" viewBox="0 0 108 96" fill="none" xmlns="http://www.w3.org/2000/svg"><g clip-path="url(#a)"><mask id="b" style="mask-type:alpha" maskUnits="userSpaceOnUse" x="-11" y="-17" width="130" height="130"><path d="M119-17H-11v130h130V-17Z" fill="#C4C4C4"/></mask><g mask="url(#b)"><path d="m42.364 2.53 4.502 3.431 3.105-4.781 3.872 4.09L57.676 1l3.155 4.641 4.461-3.65 2.356 5.07 4.99-2.94 1.498 5.38 5.38-2.15.61 5.561 5.649-1.32-.3 5.601 5.78-.45-1.198 5.502 5.76.43-2.067 5.27 5.6 1.301-2.885 4.901 5.31 2.13-3.633 4.431 4.881 2.911-4.292 3.84 4.332 3.631-4.841 3.141 3.693 4.251-5.29 2.38 2.945 4.782-5.59 1.55 2.126 5.171-5.75.7 1.258 5.451-5.77-.19.36 5.592-5.66-1.06-.549 5.59-5.4-1.9-1.447 5.451-5.01-2.7-2.297 5.17-4.501-3.43-3.105 4.781-3.883-4.09L50.53 96l-3.155-4.641-4.462 3.65-2.365-5.07-4.971 2.94-1.507-5.39-5.38 2.16-.62-5.561-5.639 1.32.3-5.601-5.78.45 1.198-5.502-5.76-.43 2.067-5.27-5.6-1.3 2.875-4.902-5.3-2.14 3.633-4.421-4.891-2.921 4.292-3.83-4.332-3.631 4.85-3.141-3.692-4.251 5.29-2.39-2.945-4.772 5.59-1.55-2.126-5.181 5.75-.7-1.258-5.441 5.77.18-.36-5.582 5.66 1.05.549-5.58 5.4 1.9 1.447-5.451 5.01 2.7 2.297-5.17Z" fill="#F26522"/><path d="M82.111 76.976a39.932 39.932 0 0 0 8.703-12.955 39.998 39.998 0 0 0 .06-30.63 39.933 39.933 0 0 0-8.65-12.989 39.84 39.84 0 0 0-12.962-8.671 39.776 39.776 0 0 0-30.567.055 39.843 39.843 0 0 0-12.93 8.718 39.938 39.938 0 0 0-8.641 12.953 40.003 40.003 0 0 0-3.036 15.281 39.973 39.973 0 0 0 11.667 28.238 39.808 39.808 0 0 0 28.176 11.7 39.809 39.809 0 0 0 28.18-11.69v-.01Z" fill="#fff"/><path d="M80.614 75.476a37.812 37.812 0 0 0 8.442-12.273 37.875 37.875 0 0 0 .24-29.223 37.815 37.815 0 0 0-8.238-12.41 37.727 37.727 0 0 0-12.385-8.255 37.663 37.663 0 0 0-29.164.24 37.73 37.73 0 0 0-12.247 8.46 37.85 37.85 0 0 0-10.613 26.6 37.847 37.847 0 0 0 11.05 26.423c7 7.014 16.47 10.99 26.368 11.073a37.69 37.69 0 0 0 26.547-10.635Z" fill="#F26522"/><path d="M53.913 86.798a38.018 38.018 0 0 1-17.875-4.51 38.106 38.106 0 0 1-13.667-12.394 37.985 37.985 0 0 1-5.21-11.722 37.884 37.884 0 0 1 4.112-28.826 37.881 37.881 0 0 1 9.89-11.054 37.798 37.798 0 0 1 13.367-6.4 37.607 37.607 0 0 1 21.7.86 38.09 38.09 0 0 1 19.275 14.844 37.987 37.987 0 0 1 5.21 11.722 37.883 37.883 0 0 1-4.122 28.826 37.882 37.882 0 0 1-9.89 11.054 37.798 37.798 0 0 1-13.367 6.4c-3.094.8-6.259 1.2-9.423 1.2Zm.05-75.626c-3.124 0-6.258.4-9.313 1.18a37.21 37.21 0 0 0-13.202 6.318 37.294 37.294 0 0 0-9.756 10.926 37.39 37.39 0 0 0-4.072 28.456A37.544 37.544 0 0 0 30.93 78.419a37.412 37.412 0 0 0 22.982 7.899c3.124 0 6.259-.4 9.313-1.18A37.199 37.199 0 0 0 76.43 78.82a37.281 37.281 0 0 0 9.755-10.927 37.381 37.381 0 0 0 4.073-28.456 37.534 37.534 0 0 0-13.31-20.369 37.401 37.401 0 0 0-22.984-7.897Z" fill="#F26522"/><path d="M22.93 35.347v.02l.02.98-.819-.16-.03-1.37.37-.82 4.262 1.87-.42.97-3.383-1.49Zm4.152-4.91c1.228.74 1.777 1.76 1.168 2.77-.619 1.04-1.816.93-2.954.26-1.158-.7-1.777-1.74-1.158-2.77.639-1.07 1.846-.92 2.944-.26Zm-1.227 2.1c.918.55 1.497.59 1.697.23.22-.37-.11-.84-1.019-1.39-.888-.53-1.467-.62-1.697-.24-.2.34.09.83 1.019 1.4Zm3.763-5.371c1.128.9 1.547 1.97.798 2.9-.738.95-1.916.7-2.954-.13-1.068-.84-1.547-1.94-.799-2.89.779-.98 1.957-.67 2.955.12Zm-1.477 1.92c.838.66 1.397.78 1.656.45.26-.33-.01-.84-.848-1.5-.809-.64-1.378-.81-1.647-.47-.24.31-.02.84.838 1.52Zm3.054-4.921c.659.73.549 1.53.05 1.98-.53.48-1.298.46-1.897-.2-.549-.6-.599-1.42 0-1.96.59-.54 1.318-.4 1.847.19v-.01Zm-1.258 1.23c.33.36.699.51.928.3.22-.21.12-.55-.23-.94-.319-.35-.658-.54-.917-.3-.24.21-.1.59.22.94Zm2.655 2.16-1.247-5.38.429-.39 1.248 5.38-.43.4v-.01Zm2.396-4.2c.649.71.539 1.51.04 1.97-.52.47-1.298.45-1.877-.2-.559-.62-.609-1.43-.02-1.96.6-.54 1.318-.4 1.857.19Zm-1.258 1.2c.32.37.689.52.919.31.22-.2.12-.54-.23-.93-.32-.35-.659-.54-.898-.31-.25.22-.1.59.21.94v-.01Zm7.207-3.32a5.5 5.5 0 0 1-1.278 1.02c-.768.44-1.427.55-2.026.4a2.424 2.424 0 0 1-1.457-1.21c-.779-1.401-.2-2.781 1.178-3.561.549-.3 1.028-.43 1.287-.45l.23.88c-.3.02-.62.1-1.078.37-.799.44-1.158 1.23-.64 2.15.49.88 1.319 1.08 2.097.64.22-.12.38-.24.44-.32l-.5-.89-.649.37-.419-.75 1.577-.88 1.238 2.23Zm.08-5.012.958 2.62c.3.781.739 1.071 1.258.881.539-.2.699-.68.399-1.5l-.948-2.6 1.018-.381.938 2.55c.51 1.4.05 2.331-1.138 2.771-1.148.42-2.046.02-2.575-1.42l-.928-2.54 1.028-.38h-.01Zm5.75 1.98-.1 1.28-1.099.231.47-5.041 1.397-.3 2.456 4.45-1.158.24-.62-1.14-1.347.28Zm1.027-1.06-.499-.94-.429-.87h-.01c-.01.3-.01.68-.03.97l-.07 1.06 1.038-.22Zm2.286-3.12c.35-.08.859-.15 1.448-.19.718-.04 1.227.04 1.587.3.3.2.489.54.509.98.04.61-.37 1.06-.779 1.24v.02c.35.12.55.42.699.86.18.54.36 1.16.469 1.35l-1.118.06a6.434 6.434 0 0 1-.4-1.1c-.169-.6-.389-.75-.838-.73l-.32.02.11 1.9-1.077.06-.29-4.77Zm1.208 2.02.43-.03c.548-.03.848-.32.828-.75-.03-.43-.34-.64-.849-.61-.26.01-.409.03-.489.06l.08 1.33Zm4.452 1.41-.45 1.2-1.117-.09 1.876-4.7 1.428.12 1.088 4.96-1.178-.1-.27-1.27-1.377-.12Zm1.297-.71-.22-1.05-.159-.95h-.02l-.3.9-.369 1 1.068.1Zm1.977 2.29 1.158-4.7 1.237.3.56 1.96c.15.57.279 1.22.369 1.8h.01c.1-.63.23-1.27.399-1.98l.34-1.37.968.24-1.148 4.701-1.118-.27-.56-2.06c-.149-.57-.319-1.26-.398-1.86h-.03c-.12.63-.27 1.3-.46 2.06l-.349 1.42-.978-.24Zm6.957-2.06-1.198-.49.34-.85 3.443 1.4-.35.85-1.217-.5-1.467 3.641-1.008-.4 1.467-3.65h-.01Zm4.661 4.371-1.547-.87-.559 1 1.727.98-.429.78-2.695-1.5 2.366-4.23 2.595 1.46-.44.78-1.646-.92-.49.88 1.558.87-.44.77Zm3.215 2.29-1.438-1.06-.678.93 1.597 1.181-.52.72-2.485-1.83 2.865-3.901 2.395 1.77-.529.72-1.517-1.12-.599.81 1.438 1.06-.53.72Zm7.406 36.989 1.188-3.241.858.3-.38 1.04 2.596.95.37-1.03.798.29c-.05.15-.1.3-.13.46-.04.16-.05.29-.04.4.01.12.06.23.12.32.07.09.17.16.3.22l-.4 1.07-4.052-1.48-.37 1.01-.858-.31Zm.17 5.29c-.4-.22-.729-.44-.999-.67a2.302 2.302 0 0 1-.569-.7 1.504 1.504 0 0 1-.16-.8c.02-.28.12-.58.3-.9.17-.33.37-.57.6-.74.219-.17.468-.27.748-.3.28-.03.579 0 .908.1.33.1.699.25 1.088.46.4.23.729.45.988.67.25.21.44.45.57.71.13.26.179.52.149.8-.02.29-.12.58-.28.9-.18.32-.389.57-.608.74-.22.16-.48.26-.759.29-.28.03-.579 0-.908-.1-.33-.1-.689-.25-1.068-.46Zm.618-1.16c.57.3.999.48 1.278.51.28.03.48-.06.6-.29.119-.22.089-.44-.1-.66a3.992 3.992 0 0 0-1.119-.79 3.988 3.988 0 0 0-1.257-.5c-.29-.04-.49.06-.6.28-.129.22-.1.44.09.66.18.22.55.48 1.108.8v-.01Zm-3.453 5.022a5.673 5.673 0 0 1-.878-.8 2.302 2.302 0 0 1-.47-.8 1.503 1.503 0 0 1-.04-.801c.06-.27.2-.56.42-.85.23-.3.459-.5.698-.64.25-.14.52-.2.799-.19.28.01.569.1.878.24.31.14.65.35.998.62.38.28.67.54.899.8.21.25.36.51.449.79.09.27.1.54.04.82-.07.27-.2.55-.42.83-.229.3-.459.52-.708.65-.25.13-.51.19-.799.17a2.302 2.302 0 0 1-.878-.23 5.635 5.635 0 0 1-.998-.61h.01Zm.788-1.05c.35.295.749.529 1.178.69.27.07.49 0 .64-.2.149-.2.149-.42 0-.66a3.995 3.995 0 0 0-.99-.95c-.498-.391-.897-.621-1.167-.691-.28-.07-.499-.01-.639.19-.16.2-.16.42 0 .67.14.25.47.56.978.95Zm-7.885 6.28c-.38-.43-.56-.84-.55-1.23 0-.38.2-.73.57-1.06.38-.33.758-.47 1.138-.43.38.05.748.28 1.128.72.379.43.559.84.539 1.22 0 .39-.2.74-.58 1.07-.379.33-.758.47-1.127.42-.38-.05-.749-.28-1.118-.7v-.01Zm.749-.66.279.29a1 1 0 0 0 .26.18.4.4 0 0 0 .24.04.498.498 0 0 0 .229-.13.48.48 0 0 0 .16-.22.44.44 0 0 0 0-.24.971.971 0 0 0-.15-.28 3.999 3.999 0 0 0-.53-.62.899.899 0 0 0-.249-.17.408.408 0 0 0-.24-.04.499.499 0 0 0-.239.13.48.48 0 0 0-.16.21.42.42 0 0 0 0 .25c.11.215.245.416.4.6Zm3.204 2.02-1.358-5.74.699-.61 1.357 5.74-.698.6v.01Zm.998-2.99c-.37-.43-.56-.84-.55-1.22.01-.39.2-.74.57-1.06.38-.33.758-.48 1.138-.43.379.04.758.28 1.128.71.379.43.559.84.549 1.23-.01.38-.2.74-.58 1.06-.379.33-.758.47-1.137.43-.37-.05-.739-.29-1.108-.72h-.01Zm.758-.66.27.3c.077.07.165.127.26.17a.398.398 0 0 0 .239.04.5.5 0 0 0 .24-.13.49.49 0 0 0 .16-.21.441.441 0 0 0-.01-.25.97.97 0 0 0-.15-.28 3.703 3.703 0 0 0-.52-.62.93.93 0 0 0-.259-.17.4.4 0 0 0-.24-.04.498.498 0 0 0-.24.13.48.48 0 0 0-.149.21.42.42 0 0 0 0 .25c.03.08.07.17.14.27.06.1.15.2.26.33Zm-12.706 4.181c.26-.25.768-.66 1.347-.93.799-.37 1.478-.43 2.056-.23.58.2 1.059.68 1.358 1.32.659 1.47-.02 2.8-1.457 3.46-.57.26-1.058.35-1.318.35l-.16-.9c.3 0 .62-.06 1.098-.28.839-.38 1.258-1.14.819-2.1-.42-.91-1.238-1.18-2.056-.8-.22.1-.39.21-.45.28l.42.93.678-.32.36.78-1.637.75-1.058-2.31Zm-.48 4.981-.748-2.68c-.23-.81-.649-1.14-1.188-.99-.549.16-.748.63-.509 1.46l.739 2.68-1.048.3-.729-2.62c-.4-1.44.14-2.33 1.348-2.67 1.177-.33 2.046.14 2.455 1.62l.729 2.6-1.048.3Zm-5.57-2.42.19-1.28 1.118-.14-.858 4.99-1.427.18-2.096-4.62 1.177-.15.52 1.19 1.377-.17Zm-1.117.96.43.98.358.9h.01l.1-.96.17-1.05-1.068.13Zm-2.515 2.93c-.36.05-.879.09-1.458.08-.718-.02-1.218-.13-1.557-.41a1.23 1.23 0 0 1-.44-1.03c.01-.62.46-1.03.88-1.17v-.02c-.34-.15-.52-.47-.63-.92-.14-.55-.27-1.19-.359-1.38l1.118.03c.07.14.18.53.3 1.13.13.61.339.77.798.8h.32l.03-1.9 1.087.01-.1 4.78h.01Zm-1.049-2.1-.429-.01c-.549-.01-.878.26-.878.68-.01.44.29.67.788.68.26 0 .42 0 .5-.02l.02-1.33Zm-4.332-1.76.55-1.17 1.107.19-2.236 4.53-1.417-.23-.699-5.03 1.168.2.17 1.28 1.357.23Zm-1.337.6.13 1.07c.04.3.06.67.09.96h.01l.369-.88.449-.96-1.048-.18v-.01Zm-1.797-2.43-1.527 4.6-1.208-.4-.4-2c-.109-.58-.189-1.24-.229-1.83h-.01c-.14.62-.33 1.25-.559 1.95l-.439 1.33-.948-.31 1.517-4.601 1.098.36.39 2.1c.1.58.219 1.28.259 1.89h.02c.17-.62.37-1.27.619-2.02l.459-1.39.958.32Zm-7.107 1.5 1.178.58-.42.82-3.323-1.66.41-.82 1.187.59 1.747-3.511.978.49-1.757 3.5v.01Zm-4.292-4.742 1.477 1 .64-.96-1.648-1.1.5-.75 2.555 1.71-2.695 4.031-2.466-1.66.5-.75 1.566 1.06.56-.84-1.478-1 .49-.74Zm-3.024-2.52 1.347 1.16.749-.87-1.498-1.3.58-.68 2.335 2.02-3.164 3.66-2.256-1.95.599-.68 1.417 1.24.66-.76-1.348-1.17.579-.67Zm40.386-4.941a26.054 26.054 0 0 0 7.607-18.404 26.054 26.054 0 0 0-7.608-18.404 25.97 25.97 0 0 0-8.426-5.642 25.93 25.93 0 0 0-28.306 5.642 26.054 26.054 0 0 0-7.608 18.404 26.054 26.054 0 0 0 7.608 18.404 25.947 25.947 0 0 0 18.366 7.623 25.947 25.947 0 0 0 18.367-7.623Z" fill="#fff"/><path d="M53.863 76.336a27.493 27.493 0 0 1-16.849-5.741 27.68 27.68 0 0 1-8.852-11.635 27.739 27.739 0 0 1-1.699-14.53 27.703 27.703 0 0 1 3.574-10.033 27.647 27.647 0 0 1 10.119-9.993 27.575 27.575 0 0 1 13.737-3.63 27.494 27.494 0 0 1 16.86 5.751 27.66 27.66 0 0 1 9.98 15.154 27.659 27.659 0 0 1-3.014 21.034 27.646 27.646 0 0 1-7.213 8.074 27.583 27.583 0 0 1-9.755 4.679 28.26 28.26 0 0 1-6.888.87Zm.04-55.082a27.225 27.225 0 0 0-11.976 2.785 27.281 27.281 0 0 0-9.539 7.774 27.378 27.378 0 0 0-4.897 23.499 27.27 27.27 0 0 0 9.67 14.804 27.174 27.174 0 0 0 16.702 5.74 27.225 27.225 0 0 0 11.973-2.789 27.282 27.282 0 0 0 9.535-7.774 27.38 27.38 0 0 0 4.894-23.495 27.27 27.27 0 0 0-9.666-14.8 27.175 27.175 0 0 0-16.696-5.744Z" fill="#fff"/><path d="m47.974 24.505 1.897 2.22 2.894-.3-1.507 2.49 1.188 2.671-2.845-.68-2.166 1.96-.23-2.91-2.535-1.46 2.695-1.13.6-2.861h.01Zm7.257 1.2 1.178 1.37 1.786-.19-.938 1.54.739 1.651-1.757-.42-1.338 1.2-.14-1.79-1.567-.9 1.667-.7.37-1.76Zm-13.695 3.34 1.168 1.371 1.797-.2-.939 1.55.729 1.64-1.747-.41-1.337 1.2-.15-1.8-1.557-.9 1.667-.69.369-1.76Zm17.268 34.628 1.897 2.23 2.904-.31-1.517 2.501 1.198 2.67-2.845-.68-2.166 1.96-.24-2.91-2.535-1.46 2.695-1.13.61-2.86v-.01Zm7.267 1.21 1.168 1.37 1.796-.2-.938 1.551.729 1.65-1.747-.42-1.337 1.2-.15-1.8-1.557-.9 1.657-.68.379-1.77Zm-13.705 3.341 1.178 1.37 1.797-.2-.949 1.54.739 1.651-1.757-.42-1.337 1.21-.14-1.8-1.557-.9 1.657-.69.369-1.76ZM6.241 45C2.118 50.54.39 56.332 1.759 61.703c1.377 5.38 5.67 9.622 11.938 12.502l88.058-22.564c4.123-5.552 5.86-11.333 4.492-16.704-1.377-5.381-5.669-9.622-11.948-12.503L6.241 45Z" fill="#F26522"/><path d="m13.667 74.525-.1-.05C7.01 71.465 2.817 67.074 1.47 61.773c-1.347-5.281.22-11.143 4.532-16.954l.07-.09.1-.02 88.158-22.595.1.04c6.568 3.021 10.75 7.412 12.098 12.703 1.357 5.291-.22 11.152-4.532 16.964l-.06.08-.1.03-88.168 22.594ZM6.42 45.26C2.268 50.89.75 56.552 2.048 61.633c1.298 5.08 5.34 9.322 11.679 12.262l87.849-22.514c4.162-5.632 5.669-11.293 4.382-16.374-1.298-5.081-5.341-9.322-11.679-12.262L6.41 45.269l.01-.01Z" fill="#F26522"/><path d="m15.144 71.965-.1-.04c-6.168-2.48-10.051-6.201-11.219-10.792-1.168-4.581.45-9.712 4.671-14.863l.07-.08.1-.02 84.046-21.545.1.04c6.168 2.48 10.041 6.211 11.219 10.792 1.168 4.581-.449 9.722-4.681 14.863l-.06.08-.1.02-84.046 21.545ZM8.906 46.73c-4.063 4.96-5.61 9.902-4.492 14.253 1.098 4.37 4.831 7.941 10.77 10.352L98.95 49.87c4.053-4.97 5.61-9.902 4.492-14.263-1.108-4.36-4.831-7.941-10.78-10.352L8.906 46.73Z" fill="#fff"/><path d="M16.492 64.674c-.62.16-1.188.2-1.697.12a6.635 6.635 0 0 1-1.497-.4l-.819-3.201.19-.05c.549.47 1.098.8 1.677.98.559.18 1.068.21 1.527.1.12-.04.27-.1.45-.19a1.168 1.168 0 0 0 .648-.83c.05-.21.04-.47-.04-.77a1.371 1.371 0 0 0-1.128-1.07c-.3-.05-.629-.1-.968-.12a5.278 5.278 0 0 1-.978-.17c-.719-.2-1.298-.59-1.717-1.141a6.018 6.018 0 0 1-.998-2.22 4.81 4.81 0 0 1 .17-3.301 3.08 3.08 0 0 1 2.096-1.79c.975-.24 2-.17 2.934.2l.789 3.08-.18.05a4.39 4.39 0 0 0-1.378-.8 2.392 2.392 0 0 0-1.437-.1c-.18.04-.33.1-.459.18-.13.08-.26.2-.38.36-.1.13-.179.3-.219.5-.05.22-.04.45.02.68.09.34.23.6.43.76.199.17.528.27.987.33l.859.1c.27.03.579.1.898.19.649.2 1.178.54 1.597 1.04.42.501.749 1.211.989 2.141.339 1.34.299 2.5-.12 3.471a3.162 3.162 0 0 1-2.246 1.87Zm3.603-1.18-.708-14.144 2.205-.56 6.16 12.743-2.097.53-1.198-2.61-2.525.64.2 2.88-2.037.52Zm3.294-6.372L21.443 52.9l.3 4.641 1.656-.42h-.01Zm6.708 3.8L27.322 50.05l-2.386.61-.648-2.56 6.787-1.74.649 2.56-2.376.61 2.775 10.883-2.026.51Zm9.253-2.37-4.342 1.12-.6-2.35 1.159-.3-2.226-8.742-1.158.3-.599-2.35 4.342-1.11.599 2.34-1.158.3 2.226 8.752 1.158-.3.599 2.34Zm3.893-.73c-.553.15-1.13.187-1.697.11a6.686 6.686 0 0 1-1.497-.4l-.809-3.2.18-.04c.549.46 1.108.79 1.677.97.569.18 1.078.21 1.537.1.11-.03.26-.1.439-.18a1.169 1.169 0 0 0 .659-.84c.05-.2.03-.46-.04-.76a1.372 1.372 0 0 0-1.138-1.081c-.3-.05-.629-.08-.968-.11a5.113 5.113 0 0 1-.978-.18c-.71-.2-1.288-.58-1.717-1.13a6.017 6.017 0 0 1-.998-2.23 4.81 4.81 0 0 1 .18-3.301 3.08 3.08 0 0 1 2.095-1.78 4.822 4.822 0 0 1 2.935.2l.779 3.08-.18.04a4.39 4.39 0 0 0-1.368-.8c-.499-.18-.998-.22-1.447-.1a1.437 1.437 0 0 0-.838.54c-.1.13-.17.3-.22.52-.04.2-.03.43.03.67.08.34.23.6.42.76.199.16.528.27.997.33l.849.1c.28.03.579.09.898.19.659.19 1.188.53 1.597 1.03.42.5.749 1.22.998 2.15.33 1.341.3 2.491-.13 3.462a3.16 3.16 0 0 1-2.245 1.88Zm7.097-13.673-3.394.87.659 2.54 3.104-.8.659 2.561-3.114.8 1.477 5.782-2.017.51-3.433-13.443 5.4-1.38.659 2.56Zm2.954 10.832-.708-14.133 2.206-.57 6.148 12.743-2.076.54-1.198-2.62-2.545.65.2 2.87-2.027.52Zm3.294-6.36-1.946-4.222.3 4.641 1.646-.42Zm8.704 3.57c-1.218.3-2.325-.06-3.354-1.1-1.018-1.03-1.806-2.65-2.375-4.861-.54-2.13-.62-3.921-.23-5.371.39-1.45 1.188-2.331 2.396-2.631a3.965 3.965 0 0 1 1.697-.07c.2.04.429.11.688.21.26.1.47.2.63.27l.818 3.2-.2.06-.499-.42c-.2-.17-.43-.32-.659-.47a3.195 3.195 0 0 0-.748-.33 1.395 1.395 0 0 0-.759-.02c-.3.07-.539.22-.749.44-.2.21-.369.54-.489.97-.11.4-.16.9-.14 1.521.02.62.13 1.32.34 2.11.21.84.459 1.53.739 2.06.279.531.569.951.868 1.241.3.28.599.47.898.55a1.474 1.474 0 0 0 1.537-.39c.2-.2.36-.42.48-.64.13-.24.24-.47.329-.7l.23-.6.18-.05.798 3.16-.4.52a3.912 3.912 0 0 1-2.026 1.34Zm5.4-1.67-2.775-10.873-2.385.61-.649-2.56 6.788-1.74.648 2.56-2.375.61 2.775 10.882-2.027.51Zm9.253-2.371-4.342 1.11-.599-2.34 1.168-.3-2.236-8.742-1.158.3-.598-2.35 4.342-1.12.599 2.35-1.158.3 2.226 8.742 1.157-.3.6 2.35Zm6.968-8.942c.559 2.18.648 3.971.269 5.401-.38 1.42-1.178 2.29-2.396 2.6-1.207.31-2.325-.08-3.333-1.16-1.019-1.08-1.797-2.7-2.346-4.84-.55-2.16-.639-3.951-.27-5.382.37-1.44 1.168-2.3 2.386-2.62 1.208-.3 2.326.07 3.344 1.14 1.008 1.07 1.797 2.7 2.346 4.861Zm-2.097.53c-.2-.8-.419-1.47-.658-2a5.908 5.908 0 0 0-.759-1.29 2.077 2.077 0 0 0-.789-.64 1.166 1.166 0 0 0-1.357.33c-.16.2-.3.51-.38.94-.08.4-.1.89-.05 1.5.04.6.17 1.3.37 2.1.21.82.44 1.5.669 2.01.24.531.499.951.748 1.271.27.33.54.54.799.65.26.1.5.12.739.06.24-.06.449-.2.629-.43.18-.23.299-.55.379-.95.07-.44.09-.93.05-1.47-.04-.54-.17-1.24-.38-2.08h-.01Zm11.918 4.111-1.946.5-5.5-8.572 2.396 9.372-1.857.47-3.433-13.442 2.495-.63 4.532 7.041-1.967-7.702 1.847-.47 3.433 13.433Z" fill="#fff"/></g></g><defs><clipPath id="a"><path fill="#fff" d="M0 0h108v96H0z"/></clipPath></defs></svg>